<svg xmlns="http://www.w3.org/2000/svg" xmlns:xlink="http://www.w3.org/1999/xlink" stroke-miterlimit="10" stroke-linecap="square" stroke="none" fill="none" viewBox="251.0016977928693 111.02040816326532 1209.37181663837 695.5102040816327" version="1.1" style="max-height: 500px" width="1209.37181663837" height="695.5102040816327"><clipPath id="g33548a1f84c_1_229.0"><path clip-rule="nonzero" d="m0 0l1920.0 0l0 960.0l-1920.0 0l0 -960.0z"/></clipPath><g clip-path="url(#g33548a1f84c_1_229.0)"><path fill-rule="evenodd" d="m0 0l1920.0 0l0 960.0l-1920.0 0z" fill="#ffffff"/><path fill-rule="evenodd" d="m1159.7559 190.6354l0 0c0 -6.5434723 5.3045654 -11.848007 11.848022 -11.848007l258.66626 0c3.142212 0 6.155884 1.2482758 8.377808 3.4701996c2.2219238 2.221939 3.4702148 5.2355194 3.4702148 8.377808l0 47.39061c0 6.5434723 -5.3045654 11.847992 -11.848022 11.847992l-258.66626 0c-6.543457 0 -11.848022 -5.3045197 -11.848022 -11.847992z" fill="#b4a7d6"/><path fill-rule="evenodd" d="m1159.7559 190.6354l0 0c0 -6.5434723 5.3045654 -11.848007 11.848022 -11.848007l258.66626 0c3.142212 0 6.155884 1.2482758 8.377808 3.4701996c2.2219238 2.221939 3.4702148 5.2355194 3.4702148 8.377808l0 47.39061c0 6.5434723 -5.3045654 11.847992 -11.848022 11.847992l-258.66626 0c-6.543457 0 -11.848022 -5.3045197 -11.848022 -11.847992z" stroke-linecap="butt" stroke-linejoin="round" stroke-width="1.0" stroke="#595959"/><path fill-rule="nonzero" d="m1178.4448 222.87071l0 -15.15625l-5.65625 0l0 -2.03125l13.625 0l0 2.03125l-5.6875 0l0 15.15625l-2.28125 0zm15.890625 -4.015625l2.171875 0.28125q-0.515625 1.90625 -1.90625 2.96875q-1.390625 1.046875 -3.5625 1.046875q-2.734375 0 -4.34375 -1.671875q-1.59375 -1.6875 -1.59375 -4.734375q0 -3.140625 1.609375 -4.875q1.625 -1.734375 4.203125 -1.734375q2.5 0 4.078125 1.703125q1.59375 1.703125 1.59375 4.78125q0 0.1875 -0.015625 0.5625l-9.28125 0q0.109375 2.046875 1.15625 3.140625q1.046875 1.09375 2.609375 1.09375q1.15625 0 1.96875 -0.609375q0.828125 -0.609375 1.3125 -1.953125zm-6.9375 -3.40625l6.953125 0q-0.140625 -1.5625 -0.796875 -2.359375q-1.0 -1.21875 -2.609375 -1.21875q-1.453125 0 -2.453125 0.984375q-0.984375 0.96875 -1.09375 2.59375zm10.347656 7.421875l4.546875 -6.46875l-4.203125 -5.984375l2.640625 0l1.90625 2.921875q0.546875 0.828125 0.875 1.390625q0.515625 -0.765625 0.9375 -1.359375l2.109375 -2.953125l2.515625 0l-4.296875 5.859375l4.625 6.59375l-2.59375 0l-2.546875 -3.875l-0.6875 -1.03125l-3.265625 4.90625l-2.5625 0zm18.015625 -1.890625l0.3125 1.859375q-0.890625 0.203125 -1.59375 0.203125q-1.15625 0 -1.796875 -0.359375q-0.625 -0.375 -0.890625 -0.96875q-0.25 -0.59375 -0.25 -2.484375l0 -7.171875l-1.546875 0l0 -1.640625l1.546875 0l0 -3.078125l2.09375 -1.265625l0 4.34375l2.125 0l0 1.640625l-2.125 0l0 7.28125q0 0.90625 0.109375 1.171875q0.125 0.25 0.375 0.40625q0.25 0.140625 0.71875 0.140625q0.34375 0 0.921875 -0.078125zm9.0546875 1.890625l0 -17.1875l12.421875 0l0 2.03125l-10.15625 0l0 5.265625l9.5 0l0 2.015625l-9.5 0l0 5.84375l10.546875 0l0 2.03125l-12.8125 0zm15.6796875 0l0 -12.453125l1.890625 0l0 1.75q0.59375 -0.90625 1.5625 -1.46875q0.96875 -0.5625 2.21875 -0.5625q1.375 0 2.25 0.578125q0.890625 0.578125 1.265625 1.609375q1.46875 -2.1875 3.84375 -2.1875q1.84375 0 2.84375 1.03125q1.0 1.03125 1.0 3.15625l0 8.546875l-2.109375 0l0 -7.84375q0 -1.265625 -0.203125 -1.8125q-0.203125 -0.5625 -0.75 -0.90625q-0.53125 -0.34375 -1.25 -0.34375q-1.3125 0 -2.1875 0.875q-0.859375 0.875 -0.859375 2.796875l0 7.234375l-2.109375 0l0 -8.09375q0 -1.40625 -0.515625 -2.109375q-0.515625 -0.703125 -1.6875 -0.703125q-0.890625 0 -1.65625 0.46875q-0.75 0.46875 -1.09375 1.375q-0.34375 0.90625 -0.34375 2.609375l0 6.453125l-2.109375 0zm21.945312 0l-1.953125 0l0 -17.1875l2.109375 0l0 6.140625q1.328125 -1.6875 3.40625 -1.6875q1.140625 0 2.171875 0.46875q1.03125 0.46875 1.6875 1.3125q0.65625 0.828125 1.03125 2.015625q0.375 1.171875 0.375 2.53125q0 3.1875 -1.578125 4.9375q-1.578125 1.75 -3.796875 1.75q-2.203125 0 -3.453125 -1.84375l0 1.5625zm-0.03125 -6.3125q0 2.234375 0.609375 3.234375q1.0 1.625 2.703125 1.625q1.375 0 2.375 -1.203125q1.015625 -1.203125 1.015625 -3.578125q0 -2.4375 -0.96875 -3.59375q-0.953125 -1.171875 -2.328125 -1.171875q-1.390625 0 -2.40625 1.203125q-1.0 1.203125 -1.0 3.484375zm19.957031 2.296875l2.171875 0.28125q-0.515625 1.90625 -1.90625 2.96875q-1.390625 1.046875 -3.5625 1.046875q-2.734375 0 -4.34375 -1.671875q-1.59375 -1.6875 -1.59375 -4.734375q0 -3.140625 1.609375 -4.875q1.625 -1.734375 4.203125 -1.734375q2.5 0 4.078125 1.703125q1.59375 1.703125 1.59375 4.78125q0 0.1875 -0.015625 0.5625l-9.28125 0q0.109375 2.046875 1.15625 3.140625q1.046875 1.09375 2.609375 1.09375q1.15625 0 1.96875 -0.609375q0.828125 -0.609375 1.3125 -1.953125zm-6.9375 -3.40625l6.953125 0q-0.140625 -1.5625 -0.796875 -2.359375q-1.0 -1.21875 -2.609375 -1.21875q-1.453125 0 -2.453125 0.984375q-0.984375 0.96875 -1.09375 2.59375zm19.832031 7.421875l0 -1.578125q-1.1875 1.859375 -3.484375 1.859375q-1.484375 0 -2.734375 -0.8125q-1.25 -0.828125 -1.9375 -2.296875q-0.671875 -1.46875 -0.671875 -3.390625q0 -1.859375 0.609375 -3.375q0.625 -1.515625 1.859375 -2.328125q1.25 -0.8125 2.78125 -0.8125q1.125 0 2.0 0.484375q0.890625 0.46875 1.4375 1.234375l0 -6.171875l2.09375 0l0 17.1875l-1.953125 0zm-6.671875 -6.21875q0 2.390625 1.0 3.578125q1.015625 1.1875 2.390625 1.1875q1.390625 0 2.34375 -1.125q0.96875 -1.140625 0.96875 -3.453125q0 -2.5625 -0.984375 -3.75q-0.984375 -1.203125 -2.421875 -1.203125q-1.40625 0 -2.359375 1.15625q-0.9375 1.140625 -0.9375 3.609375zm20.019531 6.21875l0 -1.578125q-1.1875 1.859375 -3.484375 1.859375q-1.484375 0 -2.734375 -0.8125q-1.25 -0.828125 -1.9375 -2.296875q-0.671875 -1.46875 -0.671875 -3.390625q0 -1.859375 0.609375 -3.375q0.625 -1.515625 1.859375 -2.328125q1.25 -0.8125 2.78125 -0.8125q1.125 0 2.0 0.484375q0.890625 0.46875 1.4375 1.234375l0 -6.171875l2.09375 0l0 17.1875l-1.953125 0zm-6.671875 -6.21875q0 2.390625 1.0 3.578125q1.015625 1.1875 2.390625 1.1875q1.390625 0 2.34375 -1.125q0.96875 -1.140625 0.96875 -3.453125q0 -2.5625 -0.984375 -3.75q-0.984375 -1.203125 -2.421875 -1.203125q-1.40625 0 -2.359375 1.15625q-0.9375 1.140625 -0.9375 3.609375zm11.957031 -8.53125l0 -2.4375l2.109375 0l0 2.4375l-2.109375 0zm0 14.75l0 -12.453125l2.109375 0l0 12.453125l-2.109375 0zm5.3164062 0l0 -12.453125l1.90625 0l0 1.78125q1.375 -2.0625 3.953125 -2.0625q1.125 0 2.0625 0.40625q0.953125 0.40625 1.421875 1.0625q0.46875 0.65625 0.65625 1.5625q0.125 0.578125 0.125 2.046875l0 7.65625l-2.109375 0l0 -7.578125q0 -1.28125 -0.25 -1.921875q-0.25 -0.640625 -0.875 -1.015625q-0.625 -0.390625 -1.46875 -0.390625q-1.34375 0 -2.328125 0.859375q-0.984375 0.859375 -0.984375 3.25l0 6.796875l-2.109375 0zm12.972656 1.03125l2.046875 0.3125q0.125 0.9375 0.71875 1.375q0.78125 0.59375 2.140625 0.59375q1.46875 0 2.265625 -0.59375q0.796875 -0.578125 1.078125 -1.640625q0.15625 -0.640625 0.140625 -2.703125q-1.375 1.625 -3.4375 1.625q-2.5625 0 -3.96875 -1.84375q-1.40625 -1.859375 -1.40625 -4.453125q0 -1.78125 0.640625 -3.28125q0.640625 -1.515625 1.859375 -2.328125q1.234375 -0.828125 2.890625 -0.828125q2.203125 0 3.625 1.78125l0 -1.5l1.953125 0l0 10.765625q0 2.90625 -0.59375 4.109375q-0.59375 1.21875 -1.875 1.921875q-1.28125 0.703125 -3.15625 0.703125q-2.234375 0 -3.609375 -1.0q-1.359375 -1.0 -1.3125 -3.015625zm1.734375 -7.484375q0 2.453125 0.96875 3.578125q0.984375 1.125 2.453125 1.125q1.453125 0 2.4375 -1.109375q0.984375 -1.125 0.984375 -3.515625q0 -2.28125 -1.015625 -3.4375q-1.015625 -1.171875 -2.453125 -1.171875q-1.40625 0 -2.390625 1.140625q-0.984375 1.140625 -0.984375 3.390625zm18.65625 6.453125l0 -12.453125l1.890625 0l0 1.75q0.59375 -0.90625 1.5625 -1.46875q0.96875 -0.5625 2.21875 -0.5625q1.375 0 2.25 0.578125q0.890625 0.578125 1.265625 1.609375q1.46875 -2.1875 3.84375 -2.1875q1.84375 0 2.84375 1.03125q1.0 1.03125 1.0 3.15625l0 8.546875l-2.109375 0l0 -7.84375q0 -1.265625 -0.203125 -1.8125q-0.203125 -0.5625 -0.75 -0.90625q-0.53125 -0.34375 -1.25 -0.34375q-1.3125 0 -2.1875 0.875q-0.859375 0.875 -0.859375 2.796875l0 7.234375l-2.109375 0l0 -8.09375q0 -1.40625 -0.515625 -2.109375q-0.515625 -0.703125 -1.6875 -0.703125q-0.890625 0 -1.65625 0.46875q-0.75 0.46875 -1.09375 1.375q-0.34375 0.90625 -0.34375 2.609375l0 6.453125l-2.109375 0zm19.210938 -6.21875q0 -3.46875 1.921875 -5.125q1.609375 -1.390625 3.921875 -1.390625q2.5625 0 4.1875 1.6875q1.625 1.6875 1.625 4.640625q0 2.40625 -0.71875 3.78125q-0.71875 1.375 -2.09375 2.140625q-1.375 0.765625 -3.0 0.765625q-2.625 0 -4.234375 -1.671875q-1.609375 -1.6875 -1.609375 -4.828125zm2.171875 0q0 2.390625 1.03125 3.578125q1.046875 1.1875 2.640625 1.1875q1.5625 0 2.609375 -1.1875q1.046875 -1.203125 1.046875 -3.65625q0 -2.3125 -1.0625 -3.5q-1.046875 -1.1875 -2.59375 -1.1875q-1.59375 0 -2.640625 1.1875q-1.03125 1.1875 -1.03125 3.578125zm20.035156 6.21875l0 -1.578125q-1.1875 1.859375 -3.484375 1.859375q-1.484375 0 -2.734375 -0.8125q-1.25 -0.828125 -1.9375 -2.296875q-0.671875 -1.46875 -0.671875 -3.390625q0 -1.859375 0.609375 -3.375q0.625 -1.515625 1.859375 -2.328125q1.25 -0.8125 2.78125 -0.8125q1.125 0 2.0 0.484375q0.890625 0.46875 1.4375 1.234375l0 -6.171875l2.09375 0l0 17.1875l-1.953125 0zm-6.671875 -6.21875q0 2.390625 1.0 3.578125q1.015625 1.1875 2.390625 1.1875q1.390625 0 2.34375 -1.125q0.96875 -1.140625 0.96875 -3.453125q0 -2.5625 -0.984375 -3.75q-0.984375 -1.203125 -2.421875 -1.203125q-1.40625 0 -2.359375 1.15625q-0.9375 1.140625 -0.9375 3.609375zm20.472656 2.203125l2.171875 0.28125q-0.515625 1.90625 -1.90625 2.96875q-1.390625 1.046875 -3.5625 1.046875q-2.734375 0 -4.34375 -1.671875q-1.59375 -1.6875 -1.59375 -4.734375q0 -3.140625 1.609375 -4.875q1.625 -1.734375 4.203125 -1.734375q2.5 0 4.078125 1.703125q1.59375 1.703125 1.59375 4.78125q0 0.1875 -0.015625 0.5625l-9.28125 0q0.109375 2.046875 1.15625 3.140625q1.046875 1.09375 2.609375 1.09375q1.15625 0 1.96875 -0.609375q0.828125 -0.609375 1.3125 -1.953125zm-6.9375 -3.40625l6.953125 0q-0.140625 -1.5625 -0.796875 -2.359375q-1.0 -1.21875 -2.609375 -1.21875q-1.453125 0 -2.453125 0.984375q-0.984375 0.96875 -1.09375 2.59375zm11.707031 7.421875l0 -17.1875l2.109375 0l0 17.1875l-2.109375 0z" fill="#000000"/><path fill-rule="evenodd" d="m324.86594 545.3823l0 0c0 -6.8448486 5.5488586 -12.393738 12.393707 -12.393738l0 0c3.2870178 0 6.439392 1.3057861 8.763672 3.630066c2.3242798 2.3242188 3.6300354 5.4766235 3.6300354 8.763672l0 0c0 6.8448486 -5.5488586 12.393677 -12.393707 12.393677l0 0c-6.8448486 0 -12.393707 -5.548828 -12.393707 -12.393677z" fill="#e06666"/><path fill-rule="evenodd" d="m324.86594 545.3823l0 0c0 -6.8448486 5.5488586 -12.393738 12.393707 -12.393738l0 0c3.2870178 0 6.439392 1.3057861 8.763672 3.630066c2.3242798 2.3242188 3.6300354 5.4766235 3.6300354 8.763672l0 0c0 6.8448486 -5.5488586 12.393677 -12.393707 12.393677l0 0c-6.8448486 0 -12.393707 -5.548828 -12.393707 -12.393677z" stroke-linecap="butt" stroke-linejoin="round" stroke-width="1.0" stroke="#595959"/><path fill-rule="evenodd" d="m324.86594 627.31525l0 0c0 -6.8448486 5.5488586 -12.393677 12.393707 -12.393677l0 0c3.2870178 0 6.439392 1.3057861 8.763672 3.630005c2.3242798 2.3242798 3.6300354 5.4766846 3.6300354 8.763672l0 0c0 6.8448486 -5.5488586 12.393738 -12.393707 12.393738l0 0c-6.8448486 0 -12.393707 -5.548889 -12.393707 -12.393738z" fill="#e06666"/><path fill-rule="evenodd" d="m324.86594 627.31525l0 0c0 -6.8448486 5.5488586 -12.393677 12.393707 -12.393677l0 0c3.2870178 0 6.439392 1.3057861 8.763672 3.630005c2.3242798 2.3242798 3.6300354 5.4766846 3.6300354 8.763672l0 0c0 6.8448486 -5.5488586 12.393738 -12.393707 12.393738l0 0c-6.8448486 0 -12.393707 -5.548889 -12.393707 -12.393738z" stroke-linecap="butt" stroke-linejoin="round" stroke-width="1.0" stroke="#595959"/><path fill-rule="evenodd" d="m324.86594 586.34875l0 0c0 -6.8448486 5.5488586 -12.393677 12.393707 -12.393677l0 0c3.2870178 0 6.439392 1.3057861 8.763672 3.630005c2.3242798 2.3242798 3.6300354 5.4766846 3.6300354 8.763672l0 0c0 6.8448486 -5.5488586 12.393738 -12.393707 12.393738l0 0c-6.8448486 0 -12.393707 -5.548889 -12.393707 -12.393738z" fill="#e06666"/><path fill-rule="evenodd" d="m324.86594 586.34875l0 0c0 -6.8448486 5.5488586 -12.393677 12.393707 -12.393677l0 0c3.2870178 0 6.439392 1.3057861 8.763672 3.630005c2.3242798 2.3242798 3.6300354 5.4766846 3.6300354 8.763672l0 0c0 6.8448486 -5.5488586 12.393738 -12.393707 12.393738l0 0c-6.8448486 0 -12.393707 -5.548889 -12.393707 -12.393738z" stroke-linecap="butt" stroke-linejoin="round" stroke-width="1.0" stroke="#595959"/><path fill-rule="evenodd" d="m390.19965 524.89905l0 0c0 -6.8448486 5.5488586 -12.393677 12.393707 -12.393677l0 0c3.2870178 0 6.439392 1.3057251 8.763672 3.630005c2.3242798 2.3242798 3.6300354 5.4766846 3.6300354 8.763672l0 0c0 6.8448486 -5.5488586 12.393738 -12.393707 12.393738l0 0c-6.8448486 0 -12.393707 -5.548889 -12.393707 -12.393738z" fill="#e06666"/><path fill-rule="evenodd" d="m390.19965 524.89905l0 0c0 -6.8448486 5.5488586 -12.393677 12.393707 -12.393677l0 0c3.2870178 0 6.439392 1.3057251 8.763672 3.630005c2.3242798 2.3242798 3.6300354 5.4766846 3.6300354 8.763672l0 0c0 6.8448486 -5.5488586 12.393738 -12.393707 12.393738l0 0c-6.8448486 0 -12.393707 -5.548889 -12.393707 -12.393738z" stroke-linecap="butt" stroke-linejoin="round" stroke-width="1.0" stroke="#595959"/><path fill-rule="evenodd" d="m390.19965 606.83203l0 0c0 -6.8448486 5.5488586 -12.393738 12.393707 -12.393738l0 0c3.2870178 0 6.439392 1.3057861 8.763672 3.630066c2.3242798 2.3242798 3.6300354 5.4766235 3.6300354 8.763672l0 0c0 6.8448486 -5.5488586 12.393677 -12.393707 12.393677l0 0c-6.8448486 0 -12.393707 -5.548828 -12.393707 -12.393677z" fill="#e06666"/><path fill-rule="evenodd" d="m390.19965 606.83203l0 0c0 -6.8448486 5.5488586 -12.393738 12.393707 -12.393738l0 0c3.2870178 0 6.439392 1.3057861 8.763672 3.630066c2.3242798 2.3242798 3.6300354 5.4766235 3.6300354 8.763672l0 0c0 6.8448486 -5.5488586 12.393677 -12.393707 12.393677l0 0c-6.8448486 0 -12.393707 -5.548828 -12.393707 -12.393677z" stroke-linecap="butt" stroke-linejoin="round" stroke-width="1.0" stroke="#595959"/><path fill-rule="evenodd" d="m390.19965 565.86554l0 0c0 -6.8448486 5.5488586 -12.393677 12.393707 -12.393677l0 0c3.2870178 0 6.439392 1.3057251 8.763672 3.630005c2.3242798 2.3242798 3.6300354 5.4766846 3.6300354 8.763672l0 0c0 6.8448486 -5.5488586 12.393677 -12.393707 12.393677l0 0c-6.8448486 0 -12.393707 -5.548828 -12.393707 -12.393677z" fill="#e06666"/><path fill-rule="evenodd" d="m390.19965 565.86554l0 0c0 -6.8448486 5.5488586 -12.393677 12.393707 -12.393677l0 0c3.2870178 0 6.439392 1.3057251 8.763672 3.630005c2.3242798 2.3242798 3.6300354 5.4766846 3.6300354 8.763672l0 0c0 6.8448486 -5.5488586 12.393677 -12.393707 12.393677l0 0c-6.8448486 0 -12.393707 -5.548828 -12.393707 -12.393677z" stroke-linecap="butt" stroke-linejoin="round" stroke-width="1.0" stroke="#595959"/><path fill-rule="evenodd" d="m390.19965 647.7985l0 0c0 -6.8448486 5.5488586 -12.393738 12.393707 -12.393738l0 0c3.2870178 0 6.439392 1.3057861 8.763672 3.630066c2.3242798 2.3242798 3.6300354 5.4766235 3.6300354 8.763672l0 0c0 6.8448486 -5.5488586 12.393677 -12.393707 12.393677l0 0c-6.8448486 0 -12.393707 -5.548828 -12.393707 -12.393677z" fill="#e06666"/><path fill-rule="evenodd" d="m390.19965 647.7985l0 0c0 -6.8448486 5.5488586 -12.393738 12.393707 -12.393738l0 0c3.2870178 0 6.439392 1.3057861 8.763672 3.630066c2.3242798 2.3242798 3.6300354 5.4766235 3.6300354 8.763672l0 0c0 6.8448486 -5.5488586 12.393677 -12.393707 12.393677l0 0c-6.8448486 0 -12.393707 -5.548828 -12.393707 -12.393677z" stroke-linecap="butt" stroke-linejoin="round" stroke-width="1.0" stroke="#595959"/><path fill-rule="evenodd" d="m349.65335 545.3823l40.53543 -20.472473" fill-opacity="0.0" fill="#000000"/><path fill-rule="evenodd" d="m349.65335 545.3823l40.53543 -20.472473" stroke-linecap="butt" stroke-linejoin="round" stroke-width="1.0" stroke="#595959"/><path fill-rule="evenodd" d="m349.65335 545.3823l40.53543 20.472412" fill-opacity="0.0" fill="#000000"/><path fill-rule="evenodd" d="m349.65335 545.3823l40.53543 20.472412" stroke-linecap="butt" stroke-linejoin="round" stroke-width="1.0" stroke="#595959"/><path fill-rule="evenodd" d="m349.65335 545.3823l40.53543 61.44879" fill-opacity="0.0" fill="#000000"/><path fill-rule="evenodd" d="m349.65335 545.3823l40.53543 61.44879" stroke-linecap="butt" stroke-linejoin="round" stroke-width="1.0" stroke="#595959"/><path fill-rule="evenodd" d="m349.65335 586.34875l40.53543 -20.472412" fill-opacity="0.0" fill="#000000"/><path fill-rule="evenodd" d="m349.65335 586.34875l40.53543 -20.472412" stroke-linecap="butt" stroke-linejoin="round" stroke-width="1.0" stroke="#595959"/><path fill-rule="evenodd" d="m349.65335 627.31525l40.53543 20.472473" fill-opacity="0.0" fill="#000000"/><path fill-rule="evenodd" d="m349.65335 627.31525l40.53543 20.472473" stroke-linecap="butt" stroke-linejoin="round" stroke-width="1.0" stroke="#595959"/><path fill-rule="evenodd" d="m234.9782 459.15616l154.77165 0l0 45.259857l-154.77165 0z" fill-opacity="0.0" fill="#000000"/><path fill-rule="nonzero" d="m275.70413 483.2768l2.03125 0.515625q-0.640625 2.484375 -2.296875 3.796875q-1.640625 1.3125 -4.03125 1.3125q-2.46875 0 -4.015625 -1.0q-1.546875 -1.015625 -2.359375 -2.921875q-0.796875 -1.90625 -0.796875 -4.09375q0 -2.390625 0.90625 -4.15625q0.921875 -1.78125 2.59375 -2.703125q1.6875 -0.921875 3.703125 -0.921875q2.296875 0 3.859375 1.171875q1.5625 1.171875 2.171875 3.28125l-1.984375 0.46875q-0.53125 -1.671875 -1.546875 -2.421875q-1.0 -0.765625 -2.53125 -0.765625q-1.765625 0 -2.953125 0.84375q-1.171875 0.84375 -1.65625 2.265625q-0.484375 1.421875 -0.484375 2.921875q0 1.953125 0.5625 3.40625q0.578125 1.453125 1.765625 2.171875q1.203125 0.71875 2.609375 0.71875q1.6875 0 2.859375 -0.96875q1.1875 -0.984375 1.59375 -2.921875zm3.5743713 -0.171875q0 -3.078125 1.71875 -4.546875q1.421875 -1.234375 3.46875 -1.234375q2.28125 0 3.71875 1.5q1.453125 1.484375 1.453125 4.125q0 2.140625 -0.640625 3.359375q-0.625 1.21875 -1.859375 1.90625q-1.21875 0.671875 -2.671875 0.671875q-2.3125 0 -3.75 -1.484375q-1.4375 -1.5 -1.4375 -4.296875zm1.9375 0q0 2.125 0.921875 3.1875q0.921875 1.046875 2.328125 1.046875q1.40625 0 2.328125 -1.0625q0.921875 -1.0625 0.921875 -3.234375q0 -2.046875 -0.9375 -3.109375q-0.921875 -1.0625 -2.3125 -1.0625q-1.40625 0 -2.328125 1.0625q-0.921875 1.046875 -0.921875 3.171875zm10.627319 5.53125l0 -11.0625l1.6875 0l0 1.578125q1.21875 -1.828125 3.515625 -1.828125q1.0 0 1.84375 0.359375q0.84375 0.359375 1.25 0.953125q0.421875 0.578125 0.59375 1.375q0.09375 0.515625 0.09375 1.828125l0 6.796875l-1.875 0l0 -6.734375q0 -1.140625 -0.21875 -1.703125q-0.21875 -0.578125 -0.78125 -0.90625q-0.546875 -0.34375 -1.296875 -0.34375q-1.203125 0 -2.078125 0.765625q-0.859375 0.75 -0.859375 2.875l0 6.046875l-1.875 0zm11.111694 -3.296875l1.859375 -0.296875q0.15625 1.109375 0.859375 1.703125q0.71875 0.59375 2.0 0.59375q1.296875 0 1.921875 -0.515625q0.625 -0.53125 0.625 -1.234375q0 -0.640625 -0.5625 -1.0q-0.375 -0.25 -1.90625 -0.640625q-2.0625 -0.515625 -2.859375 -0.890625q-0.796875 -0.390625 -1.21875 -1.0625q-0.40625 -0.671875 -0.40625 -1.484375q0 -0.734375 0.328125 -1.359375q0.34375 -0.640625 0.9375 -1.0625q0.4375 -0.3125 1.1875 -0.53125q0.75 -0.234375 1.625 -0.234375q1.296875 0 2.28125 0.375q0.984375 0.375 1.453125 1.015625q0.46875 0.640625 0.640625 1.71875l-1.828125 0.25q-0.125 -0.859375 -0.734375 -1.328125q-0.59375 -0.484375 -1.6875 -0.484375q-1.28125 0 -1.84375 0.421875q-0.546875 0.421875 -0.546875 1.0q0 0.359375 0.234375 0.65625q0.21875 0.296875 0.71875 0.5q0.28125 0.109375 1.65625 0.484375q1.984375 0.53125 2.765625 0.875q0.796875 0.328125 1.234375 0.984375q0.453125 0.640625 0.453125 1.59375q0 0.9375 -0.546875 1.765625q-0.546875 0.828125 -1.578125 1.28125q-1.03125 0.453125 -2.328125 0.453125q-2.15625 0 -3.296875 -0.890625q-1.125 -0.90625 -1.4375 -2.65625zm18.664062 3.296875l0 -1.625q-1.296875 1.875 -3.515625 1.875q-0.96875 0 -1.828125 -0.375q-0.84375 -0.375 -1.265625 -0.9375q-0.40625 -0.578125 -0.5625 -1.390625q-0.125 -0.5625 -0.125 -1.75l0 -6.859375l1.875 0l0 6.140625q0 1.46875 0.125 1.96875q0.171875 0.75 0.734375 1.171875q0.578125 0.421875 1.421875 0.421875q0.84375 0 1.578125 -0.4375q0.75 -0.4375 1.046875 -1.171875q0.3125 -0.75 0.3125 -2.171875l0 -5.921875l1.875 0l0 11.0625l-1.671875 0zm4.6116943 0l0 -11.0625l1.671875 0l0 1.546875q0.53125 -0.8125 1.390625 -1.296875q0.859375 -0.5 1.96875 -0.5q1.234375 0 2.015625 0.515625q0.78125 0.5 1.109375 1.421875q1.3125 -1.9375 3.40625 -1.9375q1.65625 0 2.53125 0.921875q0.890625 0.90625 0.890625 2.796875l0 7.59375l-1.859375 0l0 -6.96875q0 -1.125 -0.1875 -1.609375q-0.1875 -0.5 -0.671875 -0.796875q-0.46875 -0.3125 -1.109375 -0.3125q-1.171875 0 -1.9375 0.78125q-0.765625 0.765625 -0.765625 2.484375l0 6.421875l-1.875 0l0 -7.1875q0 -1.25 -0.46875 -1.875q-0.453125 -0.625 -1.5 -0.625q-0.78125 0 -1.453125 0.421875q-0.671875 0.40625 -0.984375 1.21875q-0.296875 0.796875 -0.296875 2.3125l0 5.734375l-1.875 0zm25.344635 -3.5625l1.921875 0.234375q-0.453125 1.703125 -1.6875 2.640625q-1.234375 0.9375 -3.171875 0.9375q-2.421875 0 -3.84375 -1.484375q-1.421875 -1.5 -1.421875 -4.203125q0 -2.796875 1.4375 -4.328125q1.4375 -1.546875 3.734375 -1.546875q2.21875 0 3.609375 1.515625q1.40625 1.5 1.40625 4.25q0 0.15625 0 0.5l-8.25 0q0.109375 1.8125 1.03125 2.78125q0.921875 0.96875 2.3125 0.96875q1.03125 0 1.75 -0.53125q0.734375 -0.546875 1.171875 -1.734375zm-6.15625 -3.03125l6.171875 0q-0.125 -1.390625 -0.703125 -2.09375q-0.90625 -1.078125 -2.328125 -1.078125q-1.296875 0 -2.171875 0.859375q-0.875 0.859375 -0.96875 2.3125zm10.424194 6.59375l0 -11.0625l1.6875 0l0 1.671875q0.640625 -1.171875 1.1875 -1.546875q0.546875 -0.375 1.203125 -0.375q0.953125 0 1.921875 0.609375l-0.640625 1.734375q-0.6875 -0.40625 -1.375 -0.40625q-0.609375 0 -1.109375 0.375q-0.484375 0.359375 -0.6875 1.015625q-0.3125 1.0 -0.3125 2.1875l0 5.796875l-1.875 0z" fill="#000000"/><path fill-rule="evenodd" d="m374.36392 459.15616l129.88977 0l0 45.259857l-129.88977 0z" fill-opacity="0.0" fill="#000000"/><path fill-rule="nonzero" d="m397.6787 488.63617l0 -15.265625l5.765625 0q1.515625 0 2.328125 0.140625q1.109375 0.1875 1.875 0.71875q0.765625 0.53125 1.21875 1.484375q0.46875 0.9375 0.46875 2.078125q0 1.9375 -1.25 3.296875q-1.234375 1.34375 -4.46875 1.34375l-3.90625 0l0 6.203125l-2.03125 0zm2.03125 -8.015625l3.9375 0q1.96875 0 2.78125 -0.71875q0.828125 -0.734375 0.828125 -2.046875q0 -0.96875 -0.484375 -1.640625q-0.484375 -0.6875 -1.28125 -0.90625q-0.5 -0.140625 -1.875 -0.140625l-3.90625 0l0 5.453125zm11.944458 8.015625l0 -11.0625l1.6875 0l0 1.671875q0.640625 -1.171875 1.1875 -1.546875q0.546875 -0.375 1.203125 -0.375q0.953125 0 1.921875 0.609375l-0.640625 1.734375q-0.6875 -0.40625 -1.375 -0.40625q-0.609375 0 -1.109375 0.375q-0.484375 0.359375 -0.6875 1.015625q-0.3125 1.0 -0.3125 2.1875l0 5.796875l-1.875 0zm6.414917 -5.53125q0 -3.078125 1.71875 -4.546875q1.421875 -1.234375 3.46875 -1.234375q2.28125 0 3.71875 1.5q1.453125 1.484375 1.453125 4.125q0 2.140625 -0.640625 3.359375q-0.625 1.21875 -1.859375 1.90625q-1.21875 0.671875 -2.671875 0.671875q-2.3125 0 -3.75 -1.484375q-1.4375 -1.5 -1.4375 -4.296875zm1.9375 0q0 2.125 0.921875 3.1875q0.921875 1.046875 2.328125 1.046875q1.40625 0 2.328125 -1.0625q0.921875 -1.0625 0.921875 -3.234375q0 -2.046875 -0.9375 -3.109375q-0.921875 -1.0625 -2.3125 -1.0625q-1.40625 0 -2.328125 1.0625q-0.921875 1.046875 -0.921875 3.171875zm17.799194 5.53125l0 -1.390625q-1.046875 1.640625 -3.09375 1.640625q-1.3125 0 -2.421875 -0.71875q-1.109375 -0.734375 -1.71875 -2.046875q-0.609375 -1.3125 -0.609375 -3.0q0 -1.65625 0.546875 -3.0q0.546875 -1.359375 1.65625 -2.078125q1.109375 -0.71875 2.46875 -0.71875q1.0 0 1.78125 0.421875q0.78125 0.421875 1.265625 1.09375l0 -5.46875l1.875 0l0 15.265625l-1.75 0zm-5.921875 -5.515625q0 2.125 0.890625 3.171875q0.90625 1.046875 2.125 1.046875q1.21875 0 2.078125 -1.0q0.859375 -1.0 0.859375 -3.0625q0 -2.28125 -0.875 -3.34375q-0.875 -1.0625 -2.15625 -1.0625q-1.25 0 -2.09375 1.03125q-0.828125 1.015625 -0.828125 3.21875zm17.861694 5.515625l0 -1.625q-1.296875 1.875 -3.515625 1.875q-0.96875 0 -1.828125 -0.375q-0.84375 -0.375 -1.265625 -0.9375q-0.40625 -0.578125 -0.5625 -1.390625q-0.125 -0.5625 -0.125 -1.75l0 -6.859375l1.875 0l0 6.140625q0 1.46875 0.125 1.96875q0.171875 0.75 0.734375 1.171875q0.578125 0.421875 1.421875 0.421875q0.84375 0 1.578125 -0.4375q0.75 -0.4375 1.046875 -1.171875q0.3125 -0.75 0.3125 -2.171875l0 -5.921875l1.875 0l0 11.0625l-1.671875 0zm11.830444 -4.046875l1.84375 0.234375q-0.296875 1.90625 -1.546875 2.984375q-1.25 1.078125 -3.0625 1.078125q-2.265625 0 -3.65625 -1.484375q-1.375 -1.484375 -1.375 -4.25q0 -1.796875 0.59375 -3.140625q0.59375 -1.34375 1.8125 -2.015625q1.21875 -0.671875 2.640625 -0.671875q1.796875 0 2.9375 0.921875q1.15625 0.90625 1.484375 2.578125l-1.828125 0.28125q-0.265625 -1.109375 -0.921875 -1.671875q-0.65625 -0.5625 -1.59375 -0.5625q-1.421875 0 -2.3125 1.015625q-0.875 1.015625 -0.875 3.203125q0 2.234375 0.84375 3.25q0.859375 1.0 2.234375 1.0q1.109375 0 1.84375 -0.671875q0.734375 -0.671875 0.9375 -2.078125zm11.0234375 0.484375l1.921875 0.234375q-0.453125 1.703125 -1.6875 2.640625q-1.234375 0.9375 -3.171875 0.9375q-2.421875 0 -3.84375 -1.484375q-1.421875 -1.5 -1.421875 -4.203125q0 -2.796875 1.4375 -4.328125q1.4375 -1.546875 3.734375 -1.546875q2.21875 0 3.609375 1.515625q1.40625 1.5 1.40625 4.25q0 0.15625 0 0.5l-8.25 0q0.109375 1.8125 1.03125 2.78125q0.921875 0.96875 2.3125 0.96875q1.03125 0 1.75 -0.53125q0.734375 -0.546875 1.171875 -1.734375zm-6.15625 -3.03125l6.171875 0q-0.125 -1.390625 -0.703125 -2.09375q-0.90625 -1.078125 -2.328125 -1.078125q-1.296875 0 -2.171875 0.859375q-0.875 0.859375 -0.96875 2.3125zm10.424194 6.59375l0 -11.0625l1.6875 0l0 1.671875q0.640625 -1.171875 1.1875 -1.546875q0.546875 -0.375 1.203125 -0.375q0.953125 0 1.921875 0.609375l-0.640625 1.734375q-0.6875 -0.40625 -1.375 -0.40625q-0.609375 0 -1.109375 0.375q-0.484375 0.359375 -0.6875 1.015625q-0.3125 1.0 -0.3125 2.1875l0 5.796875l-1.875 0z" fill="#000000"/><path fill-rule="evenodd" d="m349.65335 627.31525l40.53543 -20.472412" fill-opacity="0.0" fill="#000000"/><path fill-rule="evenodd" d="m349.65335 627.31525l40.53543 -20.472412" stroke-linecap="butt" stroke-linejoin="round" stroke-width="1.0" stroke="#595959"/><path fill-rule="evenodd" d="m551.0378 414.33966l86.141785 -0.2204895" fill-opacity="0.0" fill="#000000"/><path fill-rule="evenodd" d="m551.03784 414.33966l80.14172 -0.20513916" stroke-linecap="butt" stroke-linejoin="round" stroke-width="1.0" stroke="#595959"/><path fill-rule="evenodd" d="m631.1838 415.78625l4.5338745 -1.6633301l-4.5422974 -1.6401062z" stroke-linecap="butt" stroke-width="1.0" stroke="#595959" fill="#595959"/><path fill-rule="evenodd" d="m774.7093 405.16476l0 18.015747l-112.15753 0l0 -18.015747z" fill="#eeeeee"/><path fill-rule="evenodd" d="m774.7093 405.16476l0 18.015747l-112.15753 0l0 -18.015747z" stroke-linecap="butt" stroke-linejoin="round" stroke-width="1.0" stroke="#ff0000"/><path fill-rule="evenodd" d="m756.8982 405.16476l0 18.236237" fill-opacity="0.0" fill="#000000"/><path fill-rule="evenodd" d="m756.8982 405.16476l0 18.236237" stroke-linecap="butt" stroke-linejoin="round" stroke-width="1.0" stroke="#ff0000"/><path fill-rule="evenodd" d="m737.2746 405.0612l0 18.236237" fill-opacity="0.0" fill="#000000"/><path fill-rule="evenodd" d="m737.2746 405.0612l0 18.236237" stroke-linecap="butt" stroke-linejoin="round" stroke-width="1.0" stroke="#ff0000"/><path fill-rule="evenodd" d="m683.06116 405.0612l0 18.236237" fill-opacity="0.0" fill="#000000"/><path fill-rule="evenodd" d="m683.06116 405.0612l0 18.236237" stroke-linecap="butt" stroke-linejoin="round" stroke-width="1.0" stroke="#ff0000"/><path fill-rule="evenodd" d="m701.397 405.0612l0 18.236237" fill-opacity="0.0" fill="#000000"/><path fill-rule="evenodd" d="m701.397 405.0612l0 18.236237" stroke-linecap="butt" stroke-linejoin="round" stroke-width="1.0" stroke="#ff0000"/><path fill-rule="evenodd" d="m719.88354 405.05594l0 18.236237" fill-opacity="0.0" fill="#000000"/><path fill-rule="evenodd" d="m719.88354 405.05594l0 18.236237" stroke-linecap="butt" stroke-linejoin="round" stroke-width="1.0" stroke="#ff0000"/><path fill-rule="evenodd" d="m637.17865 282.97375l154.77167 0l0 71.08661l-154.77167 0z" fill-opacity="0.0" fill="#000000"/><path fill-rule="nonzero" d="m703.7054 297.18814l2.03125 0l0 8.8125q0 2.3125 -0.53125 3.671875q-0.515625 1.34375 -1.875 2.203125q-1.359375 0.84375 -3.5625 0.84375q-2.140625 0 -3.515625 -0.734375q-1.359375 -0.75 -1.953125 -2.140625q-0.578125 -1.40625 -0.578125 -3.84375l0 -8.8125l2.03125 0l0 8.8125q0 1.984375 0.359375 2.9375q0.375 0.9375 1.265625 1.453125q0.90625 0.5 2.21875 0.5q2.21875 0 3.15625 -1.0q0.953125 -1.015625 0.953125 -3.890625l0 -8.8125zm4.402527 11.96875l1.859375 -0.296875q0.15625 1.109375 0.859375 1.703125q0.71875 0.59375 2.0 0.59375q1.296875 0 1.921875 -0.515625q0.625 -0.53125 0.625 -1.234375q0 -0.640625 -0.5625 -1.0q-0.375 -0.25 -1.90625 -0.640625q-2.0625 -0.515625 -2.859375 -0.890625q-0.796875 -0.390625 -1.21875 -1.0625q-0.40625 -0.671875 -0.40625 -1.484375q0 -0.734375 0.328125 -1.359375q0.34375 -0.640625 0.9375 -1.0625q0.4375 -0.3125 1.1875 -0.53125q0.75 -0.234375 1.625 -0.234375q1.296875 0 2.28125 0.375q0.984375 0.375 1.453125 1.015625q0.46875 0.640625 0.640625 1.71875l-1.828125 0.25q-0.125 -0.859375 -0.734375 -1.328125q-0.59375 -0.484375 -1.6875 -0.484375q-1.28125 0 -1.84375 0.421875q-0.546875 0.421875 -0.546875 1.0q0 0.359375 0.234375 0.65625q0.21875 0.296875 0.71875 0.5q0.28125 0.109375 1.65625 0.484375q1.984375 0.53125 2.765625 0.875q0.796875 0.328125 1.234375 0.984375q0.453125 0.640625 0.453125 1.59375q0 0.9375 -0.546875 1.765625q-0.546875 0.828125 -1.578125 1.28125q-1.03125 0.453125 -2.328125 0.453125q-2.15625 0 -3.296875 -0.890625q-1.125 -0.90625 -1.4375 -2.65625zm18.992188 -0.265625l1.921875 0.234375q-0.453125 1.703125 -1.6875 2.640625q-1.234375 0.9375 -3.171875 0.9375q-2.421875 0 -3.84375 -1.484375q-1.421875 -1.5 -1.421875 -4.203125q0 -2.796875 1.4375 -4.328125q1.4375 -1.546875 3.734375 -1.546875q2.21875 0 3.609375 1.515625q1.40625 1.5 1.40625 4.25q0 0.15625 0 0.5l-8.25 0q0.109375 1.8125 1.03125 2.78125q0.921875 0.96875 2.3125 0.96875q1.03125 0 1.75 -0.53125q0.734375 -0.546875 1.171875 -1.734375zm-6.15625 -3.03125l6.171875 0q-0.125 -1.390625 -0.703125 -2.09375q-0.90625 -1.078125 -2.328125 -1.078125q-1.296875 0 -2.171875 0.859375q-0.875 0.859375 -0.96875 2.3125zm10.424194 6.59375l0 -11.0625l1.6875 0l0 1.671875q0.640625 -1.171875 1.1875 -1.546875q0.546875 -0.375 1.203125 -0.375q0.953125 0 1.921875 0.609375l-0.640625 1.734375q-0.6875 -0.40625 -1.375 -0.40625q-0.609375 0 -1.109375 0.375q-0.484375 0.359375 -0.6875 1.015625q-0.3125 1.0 -0.3125 2.1875l0 5.796875l-1.875 0z" fill="#000000"/><path fill-rule="nonzero" d="m656.96954 338.05374l0 -15.265625l11.03125 0l0 1.796875l-9.015625 0l0 4.671875l8.453125 0l0 1.796875l-8.453125 0l0 5.203125l9.375 0l0 1.796875l-11.390625 0zm13.944458 0l0 -11.0625l1.671875 0l0 1.546875q0.53125 -0.8125 1.390625 -1.296875q0.859375 -0.5 1.96875 -0.5q1.234375 0 2.015625 0.515625q0.78125 0.5 1.109375 1.421875q1.3125 -1.9375 3.40625 -1.9375q1.65625 0 2.53125 0.921875q0.890625 0.90625 0.890625 2.796875l0 7.59375l-1.859375 0l0 -6.96875q0 -1.125 -0.1875 -1.609375q-0.1875 -0.5 -0.671875 -0.796875q-0.46875 -0.3125 -1.109375 -0.3125q-1.171875 0 -1.9375 0.78125q-0.765625 0.765625 -0.765625 2.484375l0 6.421875l-1.875 0l0 -7.1875q0 -1.25 -0.46875 -1.875q-0.453125 -0.625 -1.5 -0.625q-0.78125 0 -1.453125 0.421875q-0.671875 0.40625 -0.984375 1.21875q-0.296875 0.796875 -0.296875 2.3125l0 5.734375l-1.875 0zm19.500854 0l-1.75 0l0 -15.265625l1.875 0l0 5.4375q1.1875 -1.484375 3.03125 -1.484375q1.03125 0 1.9375 0.421875q0.90625 0.40625 1.5 1.15625q0.59375 0.734375 0.921875 1.796875q0.328125 1.046875 0.328125 2.234375q0 2.84375 -1.40625 4.40625q-1.40625 1.546875 -3.375 1.546875q-1.953125 0 -3.0625 -1.640625l0 1.390625zm-0.03125 -5.609375q0 1.984375 0.546875 2.875q0.890625 1.4375 2.390625 1.4375q1.234375 0 2.125 -1.0625q0.90625 -1.0625 0.90625 -3.1875q0 -2.15625 -0.859375 -3.1875q-0.859375 -1.03125 -2.078125 -1.03125q-1.234375 0 -2.140625 1.0625q-0.890625 1.0625 -0.890625 3.09375zm17.736694 2.046875l1.921875 0.234375q-0.453125 1.703125 -1.6875 2.640625q-1.234375 0.9375 -3.171875 0.9375q-2.421875 0 -3.84375 -1.484375q-1.421875 -1.5 -1.421875 -4.203125q0 -2.796875 1.4375 -4.328125q1.4375 -1.546875 3.734375 -1.546875q2.21875 0 3.609375 1.515625q1.40625 1.5 1.40625 4.25q0 0.15625 0 0.5l-8.25 0q0.109375 1.8125 1.03125 2.78125q0.921875 0.96875 2.3125 0.96875q1.03125 0 1.75 -0.53125q0.734375 -0.546875 1.171875 -1.734375zm-6.15625 -3.03125l6.171875 0q-0.125 -1.390625 -0.703125 -2.09375q-0.90625 -1.078125 -2.328125 -1.078125q-1.296875 0 -2.171875 0.859375q-0.875 0.859375 -0.96875 2.3125zm17.611694 6.59375l0 -1.390625q-1.046875 1.640625 -3.09375 1.640625q-1.3125 0 -2.421875 -0.71875q-1.109375 -0.734375 -1.71875 -2.046875q-0.609375 -1.3125 -0.609375 -3.0q0 -1.65625 0.546875 -3.0q0.546875 -1.359375 1.65625 -2.078125q1.109375 -0.71875 2.46875 -0.71875q1.0 0 1.78125 0.421875q0.78125 0.421875 1.265625 1.09375l0 -5.46875l1.875 0l0 15.265625l-1.75 0zm-5.921875 -5.515625q0 2.125 0.890625 3.171875q0.90625 1.046875 2.125 1.046875q1.21875 0 2.078125 -1.0q0.859375 -1.0 0.859375 -3.0625q0 -2.28125 -0.875 -3.34375q-0.875 -1.0625 -2.15625 -1.0625q-1.25 0 -2.09375 1.03125q-0.828125 1.015625 -0.828125 3.21875zm17.78357 5.515625l0 -1.390625q-1.046875 1.640625 -3.09375 1.640625q-1.3125 0 -2.421875 -0.71875q-1.109375 -0.734375 -1.71875 -2.046875q-0.609375 -1.3125 -0.609375 -3.0q0 -1.65625 0.546875 -3.0q0.546875 -1.359375 1.65625 -2.078125q1.109375 -0.71875 2.46875 -0.71875q1.0 0 1.78125 0.421875q0.78125 0.421875 1.265625 1.09375l0 -5.46875l1.875 0l0 15.265625l-1.75 0zm-5.921875 -5.515625q0 2.125 0.890625 3.171875q0.90625 1.046875 2.125 1.046875q1.21875 0 2.078125 -1.0q0.859375 -1.0 0.859375 -3.0625q0 -2.28125 -0.875 -3.34375q-0.875 -1.0625 -2.15625 -1.0625q-1.25 0 -2.09375 1.03125q-0.828125 1.015625 -0.828125 3.21875zm10.627319 -7.59375l0 -2.15625l1.875 0l0 2.15625l-1.875 0zm0 13.109375l0 -11.0625l1.875 0l0 11.0625l-1.875 0zm4.7228394 0l0 -11.0625l1.6875 0l0 1.578125q1.21875 -1.828125 3.515625 -1.828125q1.0 0 1.84375 0.359375q0.84375 0.359375 1.25 0.953125q0.421875 0.578125 0.59375 1.375q0.09375 0.515625 0.09375 1.828125l0 6.796875l-1.875 0l0 -6.734375q0 -1.140625 -0.21875 -1.703125q-0.21875 -0.578125 -0.78125 -0.90625q-0.546875 -0.34375 -1.296875 -0.34375q-1.203125 0 -2.078125 0.765625q-0.859375 0.75 -0.859375 2.875l0 6.046875l-1.875 0zm11.517944 0.921875l1.828125 0.265625q0.109375 0.84375 0.625 1.234375q0.703125 0.515625 1.90625 0.515625q1.3125 0 2.015625 -0.53125q0.703125 -0.515625 0.953125 -1.453125q0.15625 -0.5625 0.140625 -2.40625q-1.234375 1.453125 -3.0625 1.453125q-2.28125 0 -3.53125 -1.640625q-1.25 -1.65625 -1.25 -3.953125q0 -1.578125 0.5625 -2.921875q0.578125 -1.34375 1.671875 -2.0625q1.09375 -0.734375 2.5625 -0.734375q1.953125 0 3.21875 1.578125l0 -1.328125l1.734375 0l0 9.5625q0 2.578125 -0.53125 3.65625q-0.515625 1.078125 -1.65625 1.703125q-1.140625 0.625 -2.8125 0.625q-1.984375 0 -3.203125 -0.890625q-1.21875 -0.890625 -1.171875 -2.671875zm1.546875 -6.65625q0 2.1875 0.859375 3.1875q0.875 1.0 2.171875 1.0q1.296875 0 2.171875 -1.0q0.875 -1.0 0.875 -3.125q0 -2.03125 -0.90625 -3.0625q-0.890625 -1.03125 -2.171875 -1.03125q-1.25 0 -2.125 1.015625q-0.875 1.015625 -0.875 3.015625zm9.908569 2.4375l1.859375 -0.296875q0.15625 1.109375 0.859375 1.703125q0.71875 0.59375 2.0 0.59375q1.296875 0 1.921875 -0.515625q0.625 -0.53125 0.625 -1.234375q0 -0.640625 -0.5625 -1.0q-0.375 -0.25 -1.90625 -0.640625q-2.0625 -0.515625 -2.859375 -0.890625q-0.796875 -0.390625 -1.21875 -1.0625q-0.40625 -0.671875 -0.40625 -1.484375q0 -0.734375 0.328125 -1.359375q0.34375 -0.640625 0.9375 -1.0625q0.4375 -0.3125 1.1875 -0.53125q0.75 -0.234375 1.625 -0.234375q1.296875 0 2.28125 0.375q0.984375 0.375 1.453125 1.015625q0.46875 0.640625 0.640625 1.71875l-1.828125 0.25q-0.125 -0.859375 -0.734375 -1.328125q-0.59375 -0.484375 -1.6875 -0.484375q-1.28125 0 -1.84375 0.421875q-0.546875 0.421875 -0.546875 1.0q0 0.359375 0.234375 0.65625q0.21875 0.296875 0.71875 0.5q0.28125 0.109375 1.65625 0.484375q1.984375 0.53125 2.765625 0.875q0.796875 0.328125 1.234375 0.984375q0.453125 0.640625 0.453125 1.59375q0 0.9375 -0.546875 1.765625q-0.546875 0.828125 -1.578125 1.28125q-1.03125 0.453125 -2.328125 0.453125q-2.15625 0 -3.296875 -0.890625q-1.125 -0.90625 -1.4375 -2.65625z" fill="#000000"/><path fill-rule="evenodd" d="m643.5763 541.0197l154.77167 0l0 45.259827l-154.77167 0z" fill-opacity="0.0" fill="#000000"/><path fill-rule="nonzero" d="m712.7824 570.4997l0 -2.140625l2.140625 0l0 2.140625l-2.140625 0zm7.125 0l0 -2.140625l2.125 0l0 2.140625l-2.125 0zm7.09375 0l0 -2.140625l2.140625 0l0 2.140625l-2.140625 0z" fill="#000000"/><path fill-rule="evenodd" d="m552.04504 414.33844l0 326.17322" fill-opacity="0.0" fill="#000000"/><path fill-rule="evenodd" d="m552.04504 414.33844l0 326.17322" stroke-linecap="butt" stroke-linejoin="round" stroke-width="1.0" stroke="#595959"/><path fill-rule="evenodd" d="m551.0378 559.7307l86.141785 -0.22045898" fill-opacity="0.0" fill="#000000"/><path fill-rule="evenodd" d="m551.03784 559.7307l80.14172 -0.20513916" stroke-linecap="butt" stroke-linejoin="round" stroke-width="1.0" stroke="#595959"/><path fill-rule="evenodd" d="m631.1838 561.1773l4.5338745 -1.6633301l-4.5422974 -1.6400757z" stroke-linecap="butt" stroke-width="1.0" stroke="#595959" fill="#595959"/><path fill-rule="evenodd" d="m551.0378 740.73334l86.141785 -0.22045898" fill-opacity="0.0" fill="#000000"/><path fill-rule="evenodd" d="m551.03784 740.73334l80.14172 -0.20513916" stroke-linecap="butt" stroke-linejoin="round" stroke-width="1.0" stroke="#595959"/><path fill-rule="evenodd" d="m631.1838 742.17993l4.5338745 -1.6633301l-4.5422974 -1.6400757z" stroke-linecap="butt" stroke-width="1.0" stroke="#595959" fill="#595959"/><path fill-rule="evenodd" d="m902.9897 282.97375l154.77167 0l0 71.08661l-154.77167 0z" fill-opacity="0.0" fill="#000000"/><path fill-rule="nonzero" d="m960.6776 312.45377l0 -15.265625l5.765625 0q1.515625 0 2.328125 0.140625q1.109375 0.1875 1.875 0.71875q0.765625 0.53125 1.21875 1.484375q0.46875 0.9375 0.46875 2.078125q0 1.9375 -1.25 3.296875q-1.234375 1.34375 -4.46875 1.34375l-3.90625 0l0 6.203125l-2.03125 0zm2.03125 -8.015625l3.9375 0q1.96875 0 2.78125 -0.71875q0.828125 -0.734375 0.828125 -2.046875q0 -0.96875 -0.484375 -1.640625q-0.484375 -0.6875 -1.28125 -0.90625q-0.5 -0.140625 -1.875 -0.140625l-3.90625 0l0 5.453125zm11.256897 2.484375q0 -3.078125 1.71875 -4.546875q1.421875 -1.234375 3.46875 -1.234375q2.28125 0 3.71875 1.5q1.453125 1.484375 1.453125 4.125q0 2.140625 -0.640625 3.359375q-0.625 1.21875 -1.859375 1.90625q-1.21875 0.671875 -2.671875 0.671875q-2.3125 0 -3.75 -1.484375q-1.4375 -1.5 -1.4375 -4.296875zm1.9375 0q0 2.125 0.921875 3.1875q0.921875 1.046875 2.328125 1.046875q1.40625 0 2.328125 -1.0625q0.921875 -1.0625 0.921875 -3.234375q0 -2.046875 -0.9375 -3.109375q-0.921875 -1.0625 -2.3125 -1.0625q-1.40625 0 -2.328125 1.0625q-0.921875 1.046875 -0.921875 3.171875zm9.877319 2.234375l1.859375 -0.296875q0.15625 1.109375 0.859375 1.703125q0.71875 0.59375 2.0 0.59375q1.296875 0 1.921875 -0.515625q0.625 -0.53125 0.625 -1.234375q0 -0.640625 -0.5625 -1.0q-0.375 -0.25 -1.90625 -0.640625q-2.0625 -0.515625 -2.859375 -0.890625q-0.796875 -0.390625 -1.21875 -1.0625q-0.40625 -0.671875 -0.40625 -1.484375q0 -0.734375 0.328125 -1.359375q0.34375 -0.640625 0.9375 -1.0625q0.4375 -0.3125 1.1875 -0.53125q0.75 -0.234375 1.625 -0.234375q1.296875 0 2.28125 0.375q0.984375 0.375 1.453125 1.015625q0.46875 0.640625 0.640625 1.71875l-1.828125 0.25q-0.125 -0.859375 -0.734375 -1.328125q-0.59375 -0.484375 -1.6875 -0.484375q-1.28125 0 -1.84375 0.421875q-0.546875 0.421875 -0.546875 1.0q0 0.359375 0.234375 0.65625q0.21875 0.296875 0.71875 0.5q0.28125 0.109375 1.65625 0.484375q1.984375 0.53125 2.765625 0.875q0.796875 0.328125 1.234375 0.984375q0.453125 0.640625 0.453125 1.59375q0 0.9375 -0.546875 1.765625q-0.546875 0.828125 -1.578125 1.28125q-1.03125 0.453125 -2.328125 0.453125q-2.15625 0 -3.296875 -0.890625q-1.125 -0.90625 -1.4375 -2.65625zm15.5078125 1.625l0.265625 1.65625q-0.78125 0.15625 -1.40625 0.15625q-1.03125 0 -1.59375 -0.3125q-0.5625 -0.328125 -0.796875 -0.84375q-0.21875 -0.53125 -0.21875 -2.21875l0 -6.375l-1.375 0l0 -1.453125l1.375 0l0 -2.734375l1.859375 -1.125l0 3.859375l1.890625 0l0 1.453125l-1.890625 0l0 6.46875q0 0.8125 0.09375 1.046875q0.109375 0.21875 0.328125 0.359375q0.234375 0.125 0.640625 0.125q0.3125 0 0.828125 -0.0625z" fill="#000000"/><path fill-rule="nonzero" d="m922.7806 338.05374l0 -15.265625l11.03125 0l0 1.796875l-9.015625 0l0 4.671875l8.453125 0l0 1.796875l-8.453125 0l0 5.203125l9.375 0l0 1.796875l-11.390625 0zm13.944458 0l0 -11.0625l1.671875 0l0 1.546875q0.53125 -0.8125 1.390625 -1.296875q0.859375 -0.5 1.96875 -0.5q1.234375 0 2.015625 0.515625q0.78125 0.5 1.109375 1.421875q1.3125 -1.9375 3.40625 -1.9375q1.65625 0 2.53125 0.921875q0.890625 0.90625 0.890625 2.796875l0 7.59375l-1.859375 0l0 -6.96875q0 -1.125 -0.1875 -1.609375q-0.1875 -0.5 -0.671875 -0.796875q-0.46875 -0.3125 -1.109375 -0.3125q-1.171875 0 -1.9375 0.78125q-0.765625 0.765625 -0.765625 2.484375l0 6.421875l-1.875 0l0 -7.1875q0 -1.25 -0.46875 -1.875q-0.453125 -0.625 -1.5 -0.625q-0.78125 0 -1.453125 0.421875q-0.671875 0.40625 -0.984375 1.21875q-0.296875 0.796875 -0.296875 2.3125l0 5.734375l-1.875 0zm19.500854 0l-1.75 0l0 -15.265625l1.875 0l0 5.4375q1.1875 -1.484375 3.03125 -1.484375q1.03125 0 1.9375 0.421875q0.90625 0.40625 1.5 1.15625q0.59375 0.734375 0.921875 1.796875q0.328125 1.046875 0.328125 2.234375q0 2.84375 -1.40625 4.40625q-1.40625 1.546875 -3.375 1.546875q-1.953125 0 -3.0625 -1.640625l0 1.390625zm-0.03125 -5.609375q0 1.984375 0.546875 2.875q0.890625 1.4375 2.390625 1.4375q1.234375 0 2.125 -1.0625q0.90625 -1.0625 0.90625 -3.1875q0 -2.15625 -0.859375 -3.1875q-0.859375 -1.03125 -2.078125 -1.03125q-1.234375 0 -2.140625 1.0625q-0.890625 1.0625 -0.890625 3.09375zm17.736694 2.046875l1.921875 0.234375q-0.453125 1.703125 -1.6875 2.640625q-1.234375 0.9375 -3.171875 0.9375q-2.421875 0 -3.84375 -1.484375q-1.421875 -1.5 -1.421875 -4.203125q0 -2.796875 1.4375 -4.328125q1.4375 -1.546875 3.734375 -1.546875q2.21875 0 3.609375 1.515625q1.40625 1.5 1.40625 4.25q0 0.15625 0 0.5l-8.25 0q0.109375 1.8125 1.03125 2.78125q0.921875 0.96875 2.3125 0.96875q1.03125 0 1.75 -0.53125q0.734375 -0.546875 1.171875 -1.734375zm-6.15625 -3.03125l6.171875 0q-0.125 -1.390625 -0.703125 -2.09375q-0.90625 -1.078125 -2.328125 -1.078125q-1.296875 0 -2.171875 0.859375q-0.875 0.859375 -0.96875 2.3125zm17.611694 6.59375l0 -1.390625q-1.046875 1.640625 -3.09375 1.640625q-1.3125 0 -2.421875 -0.71875q-1.109375 -0.734375 -1.71875 -2.046875q-0.609375 -1.3125 -0.609375 -3.0q0 -1.65625 0.546875 -3.0q0.546875 -1.359375 1.65625 -2.078125q1.109375 -0.71875 2.46875 -0.71875q1.0 0 1.78125 0.421875q0.78125 0.421875 1.265625 1.09375l0 -5.46875l1.875 0l0 15.265625l-1.75 0zm-5.921875 -5.515625q0 2.125 0.890625 3.171875q0.90625 1.046875 2.125 1.046875q1.21875 0 2.078125 -1.0q0.859375 -1.0 0.859375 -3.0625q0 -2.28125 -0.875 -3.34375q-0.875 -1.0625 -2.15625 -1.0625q-1.25 0 -2.09375 1.03125q-0.828125 1.015625 -0.828125 3.21875zm17.78357 5.515625l0 -1.390625q-1.046875 1.640625 -3.09375 1.640625q-1.3125 0 -2.421875 -0.71875q-1.109375 -0.734375 -1.71875 -2.046875q-0.609375 -1.3125 -0.609375 -3.0q0 -1.65625 0.546875 -3.0q0.546875 -1.359375 1.65625 -2.078125q1.109375 -0.71875 2.46875 -0.71875q1.0 0 1.78125 0.421875q0.78125 0.421875 1.265625 1.09375l0 -5.46875l1.875 0l0 15.265625l-1.75 0zm-5.921875 -5.515625q0 2.125 0.890625 3.171875q0.90625 1.046875 2.125 1.046875q1.21875 0 2.078125 -1.0q0.859375 -1.0 0.859375 -3.0625q0 -2.28125 -0.875 -3.34375q-0.875 -1.0625 -2.15625 -1.0625q-1.25 0 -2.09375 1.03125q-0.828125 1.015625 -0.828125 3.21875zm10.627319 -7.59375l0 -2.15625l1.875 0l0 2.15625l-1.875 0zm0 13.109375l0 -11.0625l1.875 0l0 11.0625l-1.875 0zm4.7228394 0l0 -11.0625l1.6875 0l0 1.578125q1.21875 -1.828125 3.515625 -1.828125q1.0 0 1.84375 0.359375q0.84375 0.359375 1.25 0.953125q0.421875 0.578125 0.59375 1.375q0.09375 0.515625 0.09375 1.828125l0 6.796875l-1.875 0l0 -6.734375q0 -1.140625 -0.21875 -1.703125q-0.21875 -0.578125 -0.78125 -0.90625q-0.546875 -0.34375 -1.296875 -0.34375q-1.203125 0 -2.078125 0.765625q-0.859375 0.75 -0.859375 2.875l0 6.046875l-1.875 0zm11.517944 0.921875l1.828125 0.265625q0.109375 0.84375 0.625 1.234375q0.703125 0.515625 1.90625 0.515625q1.3125 0 2.015625 -0.53125q0.703125 -0.515625 0.953125 -1.453125q0.15625 -0.5625 0.140625 -2.40625q-1.234375 1.453125 -3.0625 1.453125q-2.28125 0 -3.53125 -1.640625q-1.25 -1.65625 -1.25 -3.953125q0 -1.578125 0.5625 -2.921875q0.578125 -1.34375 1.671875 -2.0625q1.09375 -0.734375 2.5625 -0.734375q1.953125 0 3.21875 1.578125l0 -1.328125l1.734375 0l0 9.5625q0 2.578125 -0.53125 3.65625q-0.515625 1.078125 -1.65625 1.703125q-1.140625 0.625 -2.8125 0.625q-1.984375 0 -3.203125 -0.890625q-1.21875 -0.890625 -1.171875 -2.671875zm1.546875 -6.65625q0 2.1875 0.859375 3.1875q0.875 1.0 2.171875 1.0q1.296875 0 2.171875 -1.0q0.875 -1.0 0.875 -3.125q0 -2.03125 -0.90625 -3.0625q-0.890625 -1.03125 -2.171875 -1.03125q-1.25 0 -2.125 1.015625q-0.875 1.015625 -0.875 3.015625zm9.908569 2.4375l1.859375 -0.296875q0.15625 1.109375 0.859375 1.703125q0.71875 0.59375 2.0 0.59375q1.296875 0 1.921875 -0.515625q0.625 -0.53125 0.625 -1.234375q0 -0.640625 -0.5625 -1.0q-0.375 -0.25 -1.90625 -0.640625q-2.0625 -0.515625 -2.859375 -0.890625q-0.796875 -0.390625 -1.21875 -1.0625q-0.40625 -0.671875 -0.40625 -1.484375q0 -0.734375 0.328125 -1.359375q0.34375 -0.640625 0.9375 -1.0625q0.4375 -0.3125 1.1875 -0.53125q0.75 -0.234375 1.625 -0.234375q1.296875 0 2.28125 0.375q0.984375 0.375 1.453125 1.015625q0.46875 0.640625 0.640625 1.71875l-1.828125 0.25q-0.125 -0.859375 -0.734375 -1.328125q-0.59375 -0.484375 -1.6875 -0.484375q-1.28125 0 -1.84375 0.421875q-0.546875 0.421875 -0.546875 1.0q0 0.359375 0.234375 0.65625q0.21875 0.296875 0.71875 0.5q0.28125 0.109375 1.65625 0.484375q1.984375 0.53125 2.765625 0.875q0.796875 0.328125 1.234375 0.984375q0.453125 0.640625 0.453125 1.59375q0 0.9375 -0.546875 1.765625q-0.546875 0.828125 -1.578125 1.28125q-1.03125 0.453125 -2.328125 0.453125q-2.15625 0 -3.296875 -0.890625q-1.125 -0.90625 -1.4375 -2.65625z" fill="#000000"/><path fill-rule="evenodd" d="m774.7106 731.5585l0 18.015747l-112.15747 0l0 -18.015747z" fill="#eeeeee"/><path fill-rule="evenodd" d="m774.7106 731.5585l0 18.015747l-112.15747 0l0 -18.015747z" stroke-linecap="butt" stroke-linejoin="round" stroke-width="1.0" stroke="#ff0000"/><path fill-rule="evenodd" d="m756.89954 731.5585l0 18.236206" fill-opacity="0.0" fill="#000000"/><path fill-rule="evenodd" d="m756.89954 731.5585l0 18.236206" stroke-linecap="butt" stroke-linejoin="round" stroke-width="1.0" stroke="#ff0000"/><path fill-rule="evenodd" d="m737.27594 731.4549l0 18.236206" fill-opacity="0.0" fill="#000000"/><path fill-rule="evenodd" d="m737.27594 731.4549l0 18.236206" stroke-linecap="butt" stroke-linejoin="round" stroke-width="1.0" stroke="#ff0000"/><path fill-rule="evenodd" d="m683.0625 731.4549l0 18.236206" fill-opacity="0.0" fill="#000000"/><path fill-rule="evenodd" d="m683.0625 731.4549l0 18.236206" stroke-linecap="butt" stroke-linejoin="round" stroke-width="1.0" stroke="#ff0000"/><path fill-rule="evenodd" d="m701.3983 731.4549l0 18.236206" fill-opacity="0.0" fill="#000000"/><path fill-rule="evenodd" d="m701.3983 731.4549l0 18.236206" stroke-linecap="butt" stroke-linejoin="round" stroke-width="1.0" stroke="#ff0000"/><path fill-rule="evenodd" d="m719.8848 731.44965l0 18.236206" fill-opacity="0.0" fill="#000000"/><path fill-rule="evenodd" d="m719.8848 731.44965l0 18.236206" stroke-linecap="butt" stroke-linejoin="round" stroke-width="1.0" stroke="#ff0000"/><path fill-rule="evenodd" d="m1036.4547 403.76584l0 18.015747l-112.15753 0l0 -18.015747z" fill="#eeeeee"/><path fill-rule="evenodd" d="m1036.4547 403.76584l0 18.015747l-112.15753 0l0 -18.015747z" stroke-linecap="butt" stroke-linejoin="round" stroke-width="1.0" stroke="#4285f4"/><path fill-rule="evenodd" d="m1018.6436 403.76584l0 18.236206" fill-opacity="0.0" fill="#000000"/><path fill-rule="evenodd" d="m1018.6436 403.76584l0 18.236206" stroke-linecap="butt" stroke-linejoin="round" stroke-width="1.0" stroke="#4285f4"/><path fill-rule="evenodd" d="m999.02 403.66226l0 18.236206" fill-opacity="0.0" fill="#000000"/><path fill-rule="evenodd" d="m999.02 403.66226l0 18.236206" stroke-linecap="butt" stroke-linejoin="round" stroke-width="1.0" stroke="#4285f4"/><path fill-rule="evenodd" d="m944.8066 403.66226l0 18.236206" fill-opacity="0.0" fill="#000000"/><path fill-rule="evenodd" d="m944.8066 403.66226l0 18.236206" stroke-linecap="butt" stroke-linejoin="round" stroke-width="1.0" stroke="#4285f4"/><path fill-rule="evenodd" d="m963.1424 403.66226l0 18.236206" fill-opacity="0.0" fill="#000000"/><path fill-rule="evenodd" d="m963.1424 403.66226l0 18.236206" stroke-linecap="butt" stroke-linejoin="round" stroke-width="1.0" stroke="#4285f4"/><path fill-rule="evenodd" d="m981.62897 403.657l0 18.236206" fill-opacity="0.0" fill="#000000"/><path fill-rule="evenodd" d="m981.62897 403.657l0 18.236206" stroke-linecap="butt" stroke-linejoin="round" stroke-width="1.0" stroke="#4285f4"/><path fill-rule="evenodd" d="m465.09186 361.34647l154.77167 0l0 48.472443l-154.77167 0z" fill-opacity="0.0" fill="#000000"/><path fill-rule="nonzero" d="m475.16998 387.87082l2.140625 -0.1875q0.15625 1.28125 0.703125 2.109375q0.5625 0.828125 1.734375 1.34375q1.171875 0.5 2.640625 0.5q1.296875 0 2.296875 -0.375q1.0 -0.390625 1.484375 -1.0625q0.484375 -0.6875 0.484375 -1.484375q0 -0.796875 -0.46875 -1.40625q-0.46875 -0.609375 -1.546875 -1.015625q-0.6875 -0.265625 -3.0625 -0.828125q-2.359375 -0.578125 -3.3125 -1.078125q-1.234375 -0.640625 -1.84375 -1.59375q-0.59375 -0.96875 -0.59375 -2.140625q0 -1.3125 0.734375 -2.4375q0.75 -1.125 2.15625 -1.703125q1.421875 -0.59375 3.15625 -0.59375q1.90625 0 3.359375 0.609375q1.46875 0.609375 2.25 1.8125q0.796875 1.1875 0.84375 2.703125l-2.171875 0.171875q-0.171875 -1.640625 -1.1875 -2.46875q-1.015625 -0.828125 -3.0 -0.828125q-2.0625 0 -3.015625 0.765625q-0.9375 0.75 -0.9375 1.8125q0 0.921875 0.671875 1.515625q0.65625 0.609375 3.421875 1.234375q2.78125 0.625 3.8125 1.09375q1.5 0.6875 2.203125 1.75q0.71875 1.0625 0.71875 2.4375q0 1.375 -0.78125 2.59375q-0.78125 1.203125 -2.25 1.890625q-1.46875 0.671875 -3.3125 0.671875q-2.328125 0 -3.90625 -0.671875q-1.578125 -0.6875 -2.484375 -2.046875q-0.890625 -1.375 -0.9375 -3.09375zm21.695312 5.515625l-6.65625 -17.1875l2.453125 0l4.46875 12.484375q0.546875 1.5 0.90625 2.8125q0.390625 -1.40625 0.921875 -2.8125l4.640625 -12.484375l2.328125 0l-6.734375 17.1875l-2.328125 0zm11.1015625 0l0 -17.1875l5.90625 0q2.015625 0 3.0625 0.25q1.484375 0.34375 2.515625 1.234375q1.359375 1.140625 2.03125 2.9375q0.6875 1.78125 0.6875 4.078125q0 1.953125 -0.46875 3.46875q-0.453125 1.515625 -1.171875 2.515625q-0.703125 0.984375 -1.5625 1.546875q-0.84375 0.5625 -2.046875 0.859375q-1.203125 0.296875 -2.765625 0.296875l-6.1875 0zm2.265625 -2.03125l3.671875 0q1.703125 0 2.65625 -0.3125q0.96875 -0.3125 1.546875 -0.890625q0.8125 -0.8125 1.265625 -2.171875q0.453125 -1.375 0.453125 -3.3125q0 -2.703125 -0.890625 -4.140625q-0.890625 -1.453125 -2.15625 -1.9375q-0.90625 -0.359375 -2.9375 -0.359375l-3.609375 0l0 13.125zm13.207031 2.328125l4.984375 -17.765625l1.6875 0l-4.96875 17.765625l-1.703125 0zm8.496094 -0.296875l0 -17.1875l2.328125 0l9.03125 13.5l0 -13.5l2.171875 0l0 17.1875l-2.328125 0l-9.015625 -13.5l0 13.5l-2.1875 0zm17.285156 0l0 -17.1875l3.421875 0l4.0625 12.171875q0.5625 1.703125 0.828125 2.546875q0.296875 -0.9375 0.90625 -2.765625l4.125 -11.953125l3.046875 0l0 17.1875l-2.1875 0l0 -14.375l-4.984375 14.375l-2.0625 0l-4.96875 -14.625l0 14.625l-2.1875 0zm20.179688 0l0 -17.1875l11.59375 0l0 2.03125l-9.3125 0l0 5.328125l8.0625 0l0 2.015625l-8.0625 0l0 7.8125l-2.28125 0z" fill="#000000"/><path fill-rule="evenodd" d="m806.4328 414.39478l86.14172 -0.22045898" fill-opacity="0.0" fill="#000000"/><path fill-rule="evenodd" d="m806.4328 414.39478l80.141785 -0.20513916" stroke-linecap="butt" stroke-linejoin="round" stroke-width="1.0" stroke="#595959"/><path fill-rule="evenodd" d="m886.5788 415.84137l4.5338745 -1.6633301l-4.5422974 -1.6401062z" stroke-linecap="butt" stroke-width="1.0" stroke="#595959" fill="#595959"/><path fill-rule="evenodd" d="m807.76904 491.90027l85.44879 -43.62204" fill-opacity="0.0" fill="#000000"/><path fill-rule="evenodd" d="m807.76904 491.90027l80.10492 -40.89395" stroke-linecap="butt" stroke-linejoin="round" stroke-width="1.0" stroke="#595959"/><path fill-rule="evenodd" d="m888.62494 452.47745l3.2908325 -3.5345154l-4.7928467 0.59225464z" stroke-linecap="butt" stroke-width="1.0" stroke="#595959" fill="#595959"/><path fill-rule="evenodd" d="m904.86633 534.479l154.7716 0l0 45.259827l-154.7716 0z" fill-opacity="0.0" fill="#000000"/><path fill-rule="nonzero" d="m974.07245 563.959l0 -2.140625l2.140625 0l0 2.140625l-2.140625 0zm7.125 0l0 -2.140625l2.125 0l0 2.140625l-2.125 0zm7.09375 0l0 -2.140625l2.140625 0l0 2.140625l-2.140625 0z" fill="#000000"/><path fill-rule="evenodd" d="m1034.6647 731.50336l0 18.015747l-112.15753 0l0 -18.015747z" fill="#eeeeee"/><path fill-rule="evenodd" d="m1034.6647 731.50336l0 18.015747l-112.15753 0l0 -18.015747z" stroke-linecap="butt" stroke-linejoin="round" stroke-width="1.0" stroke="#4285f4"/><path fill-rule="evenodd" d="m1016.8536 731.50336l0 18.236206" fill-opacity="0.0" fill="#000000"/><path fill-rule="evenodd" d="m1016.8536 731.50336l0 18.236206" stroke-linecap="butt" stroke-linejoin="round" stroke-width="1.0" stroke="#4285f4"/><path fill-rule="evenodd" d="m997.23 731.3998l0 18.236206" fill-opacity="0.0" fill="#000000"/><path fill-rule="evenodd" d="m997.23 731.3998l0 18.236206" stroke-linecap="butt" stroke-linejoin="round" stroke-width="1.0" stroke="#4285f4"/><path fill-rule="evenodd" d="m943.01654 731.3998l0 18.236206" fill-opacity="0.0" fill="#000000"/><path fill-rule="evenodd" d="m943.01654 731.3998l0 18.236206" stroke-linecap="butt" stroke-linejoin="round" stroke-width="1.0" stroke="#4285f4"/><path fill-rule="evenodd" d="m961.35236 731.3998l0 18.236206" fill-opacity="0.0" fill="#000000"/><path fill-rule="evenodd" d="m961.35236 731.3998l0 18.236206" stroke-linecap="butt" stroke-linejoin="round" stroke-width="1.0" stroke="#4285f4"/><path fill-rule="evenodd" d="m979.8389 731.39453l0 18.236206" fill-opacity="0.0" fill="#000000"/><path fill-rule="evenodd" d="m979.8389 731.39453l0 18.236206" stroke-linecap="butt" stroke-linejoin="round" stroke-width="1.0" stroke="#4285f4"/><path fill-rule="evenodd" d="m805.5378 740.78845l86.141785 -0.22045898" fill-opacity="0.0" fill="#000000"/><path fill-rule="evenodd" d="m805.53784 740.78845l80.14172 -0.20513916" stroke-linecap="butt" stroke-linejoin="round" stroke-width="1.0" stroke="#595959"/><path fill-rule="evenodd" d="m885.6838 742.2351l4.5338745 -1.6633911l-4.5422974 -1.6400757z" stroke-linecap="butt" stroke-width="1.0" stroke="#595959" fill="#595959"/><path fill-rule="evenodd" d="m774.7093 481.76453l0 18.015747l-112.15753 0l0 -18.015747z" fill="#eeeeee"/><path fill-rule="evenodd" d="m774.7093 481.76453l0 18.015747l-112.15753 0l0 -18.015747z" stroke-linecap="butt" stroke-linejoin="round" stroke-width="1.0" stroke="#ff0000"/><path fill-rule="evenodd" d="m756.8982 481.76453l0 18.236206" fill-opacity="0.0" fill="#000000"/><path fill-rule="evenodd" d="m756.8982 481.76453l0 18.236206" stroke-linecap="butt" stroke-linejoin="round" stroke-width="1.0" stroke="#ff0000"/><path fill-rule="evenodd" d="m737.2746 481.66095l0 18.236206" fill-opacity="0.0" fill="#000000"/><path fill-rule="evenodd" d="m737.2746 481.66095l0 18.236206" stroke-linecap="butt" stroke-linejoin="round" stroke-width="1.0" stroke="#ff0000"/><path fill-rule="evenodd" d="m683.06116 481.66095l0 18.236206" fill-opacity="0.0" fill="#000000"/><path fill-rule="evenodd" d="m683.06116 481.66095l0 18.236206" stroke-linecap="butt" stroke-linejoin="round" stroke-width="1.0" stroke="#ff0000"/><path fill-rule="evenodd" d="m701.397 481.66095l0 18.236206" fill-opacity="0.0" fill="#000000"/><path fill-rule="evenodd" d="m701.397 481.66095l0 18.236206" stroke-linecap="butt" stroke-linejoin="round" stroke-width="1.0" stroke="#ff0000"/><path fill-rule="evenodd" d="m719.88354 481.6557l0 18.236206" fill-opacity="0.0" fill="#000000"/><path fill-rule="evenodd" d="m719.88354 481.6557l0 18.236206" stroke-linecap="butt" stroke-linejoin="round" stroke-width="1.0" stroke="#ff0000"/><path fill-rule="evenodd" d="m774.7093 642.7855l0 18.015747l-112.15753 0l0 -18.015747z" fill="#eeeeee"/><path fill-rule="evenodd" d="m774.7093 642.7855l0 18.015747l-112.15753 0l0 -18.015747z" stroke-linecap="butt" stroke-linejoin="round" stroke-width="1.0" stroke="#ff0000"/><path fill-rule="evenodd" d="m756.8982 642.7855l0 18.236206" fill-opacity="0.0" fill="#000000"/><path fill-rule="evenodd" d="m756.8982 642.7855l0 18.236206" stroke-linecap="butt" stroke-linejoin="round" stroke-width="1.0" stroke="#ff0000"/><path fill-rule="evenodd" d="m737.2746 642.68195l0 18.236206" fill-opacity="0.0" fill="#000000"/><path fill-rule="evenodd" d="m737.2746 642.68195l0 18.236206" stroke-linecap="butt" stroke-linejoin="round" stroke-width="1.0" stroke="#ff0000"/><path fill-rule="evenodd" d="m683.06116 642.68195l0 18.236206" fill-opacity="0.0" fill="#000000"/><path fill-rule="evenodd" d="m683.06116 642.68195l0 18.236206" stroke-linecap="butt" stroke-linejoin="round" stroke-width="1.0" stroke="#ff0000"/><path fill-rule="evenodd" d="m701.397 642.68195l0 18.236206" fill-opacity="0.0" fill="#000000"/><path fill-rule="evenodd" d="m701.397 642.68195l0 18.236206" stroke-linecap="butt" stroke-linejoin="round" stroke-width="1.0" stroke="#ff0000"/><path fill-rule="evenodd" d="m719.88354 642.6767l0 18.236206" fill-opacity="0.0" fill="#000000"/><path fill-rule="evenodd" d="m719.88354 642.6767l0 18.236206" stroke-linecap="butt" stroke-linejoin="round" stroke-width="1.0" stroke="#ff0000"/><path fill-rule="evenodd" d="m550.58765 487.0352l86.141785 -0.22045898" fill-opacity="0.0" fill="#000000"/><path fill-rule="evenodd" d="m550.5877 487.0352l80.14172 -0.20513916" stroke-linecap="butt" stroke-linejoin="round" stroke-width="1.0" stroke="#595959"/><path fill-rule="evenodd" d="m630.73364 488.4818l4.5338745 -1.6633606l-4.5422974 -1.6401062z" stroke-linecap="butt" stroke-width="1.0" stroke="#595959" fill="#595959"/><path fill-rule="evenodd" d="m552.0444 650.23206l86.14172 -0.22045898" fill-opacity="0.0" fill="#000000"/><path fill-rule="evenodd" d="m552.0444 650.23206l80.14172 -0.20513916" stroke-linecap="butt" stroke-linejoin="round" stroke-width="1.0" stroke="#595959"/><path fill-rule="evenodd" d="m632.19037 651.67865l4.5338135 -1.6633301l-4.5422974 -1.6401367z" stroke-linecap="butt" stroke-width="1.0" stroke="#595959" fill="#595959"/><path fill-rule="evenodd" d="m1038.4363 481.70807l0 18.015747l-112.15747 0l0 -18.015747z" fill="#eeeeee"/><path fill-rule="evenodd" d="m1038.4363 481.70807l0 18.015747l-112.15747 0l0 -18.015747z" stroke-linecap="butt" stroke-linejoin="round" stroke-width="1.0" stroke="#4285f4"/><path fill-rule="evenodd" d="m1020.62524 481.70807l0 18.236237" fill-opacity="0.0" fill="#000000"/><path fill-rule="evenodd" d="m1020.62524 481.70807l0 18.236237" stroke-linecap="butt" stroke-linejoin="round" stroke-width="1.0" stroke="#4285f4"/><path fill-rule="evenodd" d="m1001.00165 481.60452l0 18.236206" fill-opacity="0.0" fill="#000000"/><path fill-rule="evenodd" d="m1001.00165 481.60452l0 18.236206" stroke-linecap="butt" stroke-linejoin="round" stroke-width="1.0" stroke="#4285f4"/><path fill-rule="evenodd" d="m946.7882 481.60452l0 18.236206" fill-opacity="0.0" fill="#000000"/><path fill-rule="evenodd" d="m946.7882 481.60452l0 18.236206" stroke-linecap="butt" stroke-linejoin="round" stroke-width="1.0" stroke="#4285f4"/><path fill-rule="evenodd" d="m965.124 481.60452l0 18.236206" fill-opacity="0.0" fill="#000000"/><path fill-rule="evenodd" d="m965.124 481.60452l0 18.236206" stroke-linecap="butt" stroke-linejoin="round" stroke-width="1.0" stroke="#4285f4"/><path fill-rule="evenodd" d="m983.6106 481.59927l0 18.236206" fill-opacity="0.0" fill="#000000"/><path fill-rule="evenodd" d="m983.6106 481.59927l0 18.236206" stroke-linecap="butt" stroke-linejoin="round" stroke-width="1.0" stroke="#4285f4"/><path fill-rule="evenodd" d="m1034.6647 642.8393l0 18.015747l-112.15753 0l0 -18.015747z" fill="#eeeeee"/><path fill-rule="evenodd" d="m1034.6647 642.8393l0 18.015747l-112.15753 0l0 -18.015747z" stroke-linecap="butt" stroke-linejoin="round" stroke-width="1.0" stroke="#4285f4"/><path fill-rule="evenodd" d="m1016.8536 642.8393l0 18.236267" fill-opacity="0.0" fill="#000000"/><path fill-rule="evenodd" d="m1016.8536 642.8393l0 18.236267" stroke-linecap="butt" stroke-linejoin="round" stroke-width="1.0" stroke="#4285f4"/><path fill-rule="evenodd" d="m997.23 642.7357l0 18.236267" fill-opacity="0.0" fill="#000000"/><path fill-rule="evenodd" d="m997.23 642.7357l0 18.236267" stroke-linecap="butt" stroke-linejoin="round" stroke-width="1.0" stroke="#4285f4"/><path fill-rule="evenodd" d="m943.01654 642.7357l0 18.236267" fill-opacity="0.0" fill="#000000"/><path fill-rule="evenodd" d="m943.01654 642.7357l0 18.236267" stroke-linecap="butt" stroke-linejoin="round" stroke-width="1.0" stroke="#4285f4"/><path fill-rule="evenodd" d="m961.35236 642.7357l0 18.236267" fill-opacity="0.0" fill="#000000"/><path fill-rule="evenodd" d="m961.35236 642.7357l0 18.236267" stroke-linecap="butt" stroke-linejoin="round" stroke-width="1.0" stroke="#4285f4"/><path fill-rule="evenodd" d="m979.8389 642.73047l0 18.236267" fill-opacity="0.0" fill="#000000"/><path fill-rule="evenodd" d="m979.8389 642.73047l0 18.236267" stroke-linecap="butt" stroke-linejoin="round" stroke-width="1.0" stroke="#4285f4"/><path fill-rule="evenodd" d="m807.76904 650.08136l81.82678 58.173218" fill-opacity="0.0" fill="#000000"/><path fill-rule="evenodd" d="m807.76904 650.08136l76.936584 54.696716" stroke-linecap="butt" stroke-linejoin="round" stroke-width="1.0" stroke="#595959"/><path fill-rule="evenodd" d="m883.7486 706.1242l4.6557007 1.2833252l-2.7415771 -3.975708z" stroke-linecap="butt" stroke-width="1.0" stroke="#595959" fill="#595959"/><path fill-rule="evenodd" d="m807.76904 415.53806l85.44879 65.44882" fill-opacity="0.0" fill="#000000"/><path fill-rule="evenodd" d="m807.76904 415.53806l80.68555 61.800415" stroke-linecap="butt" stroke-linejoin="round" stroke-width="1.0" stroke="#595959"/><path fill-rule="evenodd" d="m887.4502 478.64975l4.6070557 1.4481812l-2.5983276 -4.0707397z" stroke-linecap="butt" stroke-width="1.0" stroke="#595959" fill="#595959"/><path fill-rule="evenodd" d="m804.7454 499.03543l93.921265 129.22836" fill-opacity="0.0" fill="#000000"/><path fill-rule="evenodd" d="m804.7454 499.03543l90.39374 124.37479" stroke-linecap="butt" stroke-linejoin="round" stroke-width="1.0" stroke="#595959"/><path fill-rule="evenodd" d="m893.80304 624.3813l4.0041504 2.6999512l-1.3319092 -4.64209z" stroke-linecap="butt" stroke-width="1.0" stroke="#595959" fill="#595959"/><path fill-rule="evenodd" d="m1280.9744 402.6267l0 18.015747l-112.15747 0l0 -18.015747z" fill="#eeeeee"/><path fill-rule="evenodd" d="m1280.9744 402.6267l0 18.015747l-112.15747 0l0 -18.015747z" stroke-linecap="butt" stroke-linejoin="round" stroke-width="1.0" stroke="#4285f4"/><path fill-rule="evenodd" d="m1263.1633 402.6267l0 18.236237" fill-opacity="0.0" fill="#000000"/><path fill-rule="evenodd" d="m1263.1633 402.6267l0 18.236237" stroke-linecap="butt" stroke-linejoin="round" stroke-width="1.0" stroke="#4285f4"/><path fill-rule="evenodd" d="m1243.5397 402.52313l0 18.236237" fill-opacity="0.0" fill="#000000"/><path fill-rule="evenodd" d="m1243.5397 402.52313l0 18.236237" stroke-linecap="butt" stroke-linejoin="round" stroke-width="1.0" stroke="#4285f4"/><path fill-rule="evenodd" d="m1189.3263 402.52313l0 18.236237" fill-opacity="0.0" fill="#000000"/><path fill-rule="evenodd" d="m1189.3263 402.52313l0 18.236237" stroke-linecap="butt" stroke-linejoin="round" stroke-width="1.0" stroke="#4285f4"/><path fill-rule="evenodd" d="m1207.6621 402.52313l0 18.236237" fill-opacity="0.0" fill="#000000"/><path fill-rule="evenodd" d="m1207.6621 402.52313l0 18.236237" stroke-linecap="butt" stroke-linejoin="round" stroke-width="1.0" stroke="#4285f4"/><path fill-rule="evenodd" d="m1226.1487 402.51788l0 18.236237" fill-opacity="0.0" fill="#000000"/><path fill-rule="evenodd" d="m1226.1487 402.51788l0 18.236237" stroke-linecap="butt" stroke-linejoin="round" stroke-width="1.0" stroke="#4285f4"/><path fill-rule="evenodd" d="m1300.937 249.87401l-0.6298828 141.29134" fill-opacity="0.0" fill="#000000"/><path fill-rule="evenodd" d="m1300.937 249.87401l-0.6031494 135.2914" stroke-linecap="butt" stroke-linejoin="round" stroke-width="1.0" stroke="#595959"/><path fill-rule="evenodd" d="m1298.6821 385.15805l1.6314697 4.54541l1.6719971 -4.53067z" stroke-linecap="butt" stroke-width="1.0" stroke="#595959" fill="#595959"/><path fill-rule="evenodd" d="m1322.9419 401.81366l0 19.968506l-40.15747 0l0 -19.968506z" fill="#eeeeee"/><path fill-rule="evenodd" d="m1322.9419 401.81366l0 19.968506l-40.15747 0l0 -19.968506z" stroke-linecap="butt" stroke-linejoin="round" stroke-width="1.0" stroke="#b4a7d6"/><path fill-rule="evenodd" d="m1303.2843 401.7095l0 18.236206" fill-opacity="0.0" fill="#000000"/><path fill-rule="evenodd" d="m1303.2843 401.7095l0 18.236206" stroke-linecap="butt" stroke-linejoin="round" stroke-width="1.0" stroke="#b4a7d6"/><path fill-rule="evenodd" d="m1059.5641 411.9092l86.14172 -0.22045898" fill-opacity="0.0" fill="#000000"/><path fill-rule="evenodd" d="m1059.5641 411.9092l80.14172 -0.20513916" stroke-linecap="butt" stroke-linejoin="round" stroke-width="1.0" stroke="#595959"/><path fill-rule="evenodd" d="m1139.7101 413.3558l4.5338135 -1.6633301l-4.5423584 -1.6401062z" stroke-linecap="butt" stroke-width="1.0" stroke="#595959" fill="#595959"/><path fill-rule="evenodd" d="m1279.0479 477.8052l0 18.015747l-112.15747 0l0 -18.015747z" fill="#eeeeee"/><path fill-rule="evenodd" d="m1279.0479 477.8052l0 18.015747l-112.15747 0l0 -18.015747z" stroke-linecap="butt" stroke-linejoin="round" stroke-width="1.0" stroke="#4285f4"/><path fill-rule="evenodd" d="m1261.2368 477.8052l0 18.236206" fill-opacity="0.0" fill="#000000"/><path fill-rule="evenodd" d="m1261.2368 477.8052l0 18.236206" stroke-linecap="butt" stroke-linejoin="round" stroke-width="1.0" stroke="#4285f4"/><path fill-rule="evenodd" d="m1241.6132 477.70163l0 18.236206" fill-opacity="0.0" fill="#000000"/><path fill-rule="evenodd" d="m1241.6132 477.70163l0 18.236206" stroke-linecap="butt" stroke-linejoin="round" stroke-width="1.0" stroke="#4285f4"/><path fill-rule="evenodd" d="m1187.3998 477.70163l0 18.236206" fill-opacity="0.0" fill="#000000"/><path fill-rule="evenodd" d="m1187.3998 477.70163l0 18.236206" stroke-linecap="butt" stroke-linejoin="round" stroke-width="1.0" stroke="#4285f4"/><path fill-rule="evenodd" d="m1205.7356 477.70163l0 18.236206" fill-opacity="0.0" fill="#000000"/><path fill-rule="evenodd" d="m1205.7356 477.70163l0 18.236206" stroke-linecap="butt" stroke-linejoin="round" stroke-width="1.0" stroke="#4285f4"/><path fill-rule="evenodd" d="m1224.2222 477.69638l0 18.236206" fill-opacity="0.0" fill="#000000"/><path fill-rule="evenodd" d="m1224.2222 477.69638l0 18.236206" stroke-linecap="butt" stroke-linejoin="round" stroke-width="1.0" stroke="#4285f4"/><path fill-rule="evenodd" d="m1321.0154 476.99213l0 19.968506l-40.15747 0l0 -19.968506z" fill="#eeeeee"/><path fill-rule="evenodd" d="m1321.0154 476.99213l0 19.968506l-40.15747 0l0 -19.968506z" stroke-linecap="butt" stroke-linejoin="round" stroke-width="1.0" stroke="#b4a7d6"/><path fill-rule="evenodd" d="m1301.3578 476.88797l0 18.236237" fill-opacity="0.0" fill="#000000"/><path fill-rule="evenodd" d="m1301.3578 476.88797l0 18.236237" stroke-linecap="butt" stroke-linejoin="round" stroke-width="1.0" stroke="#b4a7d6"/><path fill-rule="evenodd" d="m1057.6376 487.08768l86.14172 -0.22045898" fill-opacity="0.0" fill="#000000"/><path fill-rule="evenodd" d="m1057.6376 487.08768l80.14172 -0.20513916" stroke-linecap="butt" stroke-linejoin="round" stroke-width="1.0" stroke="#595959"/><path fill-rule="evenodd" d="m1137.7836 488.5343l4.5338135 -1.6633606l-4.5423584 -1.6401062z" stroke-linecap="butt" stroke-width="1.0" stroke="#595959" fill="#595959"/><path fill-rule="evenodd" d="m1275.2762 642.8393l0 18.015747l-112.15759 0l0 -18.015747z" fill="#eeeeee"/><path fill-rule="evenodd" d="m1275.2762 642.8393l0 18.015747l-112.15759 0l0 -18.015747z" stroke-linecap="butt" stroke-linejoin="round" stroke-width="1.0" stroke="#4285f4"/><path fill-rule="evenodd" d="m1257.4651 642.8393l0 18.236267" fill-opacity="0.0" fill="#000000"/><path fill-rule="evenodd" d="m1257.4651 642.8393l0 18.236267" stroke-linecap="butt" stroke-linejoin="round" stroke-width="1.0" stroke="#4285f4"/><path fill-rule="evenodd" d="m1237.8416 642.7357l0 18.236267" fill-opacity="0.0" fill="#000000"/><path fill-rule="evenodd" d="m1237.8416 642.7357l0 18.236267" stroke-linecap="butt" stroke-linejoin="round" stroke-width="1.0" stroke="#4285f4"/><path fill-rule="evenodd" d="m1183.628 642.7357l0 18.236267" fill-opacity="0.0" fill="#000000"/><path fill-rule="evenodd" d="m1183.628 642.7357l0 18.236267" stroke-linecap="butt" stroke-linejoin="round" stroke-width="1.0" stroke="#4285f4"/><path fill-rule="evenodd" d="m1201.964 642.7357l0 18.236267" fill-opacity="0.0" fill="#000000"/><path fill-rule="evenodd" d="m1201.964 642.7357l0 18.236267" stroke-linecap="butt" stroke-linejoin="round" stroke-width="1.0" stroke="#4285f4"/><path fill-rule="evenodd" d="m1220.4504 642.73047l0 18.236267" fill-opacity="0.0" fill="#000000"/><path fill-rule="evenodd" d="m1220.4504 642.73047l0 18.236267" stroke-linecap="butt" stroke-linejoin="round" stroke-width="1.0" stroke="#4285f4"/><path fill-rule="evenodd" d="m1317.2438 642.02625l0 19.968506l-40.15747 0l0 -19.968506z" fill="#eeeeee"/><path fill-rule="evenodd" d="m1317.2438 642.02625l0 19.968506l-40.15747 0l0 -19.968506z" stroke-linecap="butt" stroke-linejoin="round" stroke-width="1.0" stroke="#b4a7d6"/><path fill-rule="evenodd" d="m1297.586 641.9221l0 18.236206" fill-opacity="0.0" fill="#000000"/><path fill-rule="evenodd" d="m1297.586 641.9221l0 18.236206" stroke-linecap="butt" stroke-linejoin="round" stroke-width="1.0" stroke="#b4a7d6"/><path fill-rule="evenodd" d="m1053.8658 652.1218l86.14172 -0.22045898" fill-opacity="0.0" fill="#000000"/><path fill-rule="evenodd" d="m1053.8658 652.1218l80.14172 -0.20513916" stroke-linecap="butt" stroke-linejoin="round" stroke-width="1.0" stroke="#595959"/><path fill-rule="evenodd" d="m1134.0118 653.5684l4.5339355 -1.6633301l-4.5423584 -1.6401367z" stroke-linecap="butt" stroke-width="1.0" stroke="#595959" fill="#595959"/><path fill-rule="evenodd" d="m1275.2762 732.1438l0 18.015747l-112.15759 0l0 -18.015747z" fill="#eeeeee"/><path fill-rule="evenodd" d="m1275.2762 732.1438l0 18.015747l-112.15759 0l0 -18.015747z" stroke-linecap="butt" stroke-linejoin="round" stroke-width="1.0" stroke="#4285f4"/><path fill-rule="evenodd" d="m1257.4651 732.1438l0 18.236206" fill-opacity="0.0" fill="#000000"/><path fill-rule="evenodd" d="m1257.4651 732.1438l0 18.236206" stroke-linecap="butt" stroke-linejoin="round" stroke-width="1.0" stroke="#4285f4"/><path fill-rule="evenodd" d="m1237.8416 732.0402l0 18.236206" fill-opacity="0.0" fill="#000000"/><path fill-rule="evenodd" d="m1237.8416 732.0402l0 18.236206" stroke-linecap="butt" stroke-linejoin="round" stroke-width="1.0" stroke="#4285f4"/><path fill-rule="evenodd" d="m1183.628 732.0402l0 18.236206" fill-opacity="0.0" fill="#000000"/><path fill-rule="evenodd" d="m1183.628 732.0402l0 18.236206" stroke-linecap="butt" stroke-linejoin="round" stroke-width="1.0" stroke="#4285f4"/><path fill-rule="evenodd" d="m1201.964 732.0402l0 18.236206" fill-opacity="0.0" fill="#000000"/><path fill-rule="evenodd" d="m1201.964 732.0402l0 18.236206" stroke-linecap="butt" stroke-linejoin="round" stroke-width="1.0" stroke="#4285f4"/><path fill-rule="evenodd" d="m1220.4504 732.035l0 18.236206" fill-opacity="0.0" fill="#000000"/><path fill-rule="evenodd" d="m1220.4504 732.035l0 18.236206" stroke-linecap="butt" stroke-linejoin="round" stroke-width="1.0" stroke="#4285f4"/><path fill-rule="evenodd" d="m1317.2438 731.3307l0 19.968506l-40.15747 0l0 -19.968506z" fill="#eeeeee"/><path fill-rule="evenodd" d="m1317.2438 731.3307l0 19.968506l-40.15747 0l0 -19.968506z" stroke-linecap="butt" stroke-linejoin="round" stroke-width="1.0" stroke="#b4a7d6"/><path fill-rule="evenodd" d="m1297.586 731.22656l0 18.236206" fill-opacity="0.0" fill="#000000"/><path fill-rule="evenodd" d="m1297.586 731.22656l0 18.236206" stroke-linecap="butt" stroke-linejoin="round" stroke-width="1.0" stroke="#b4a7d6"/><path fill-rule="evenodd" d="m1053.8658 741.4263l86.14172 -0.22045898" fill-opacity="0.0" fill="#000000"/><path fill-rule="evenodd" d="m1053.8658 741.4263l80.14172 -0.20513916" stroke-linecap="butt" stroke-linejoin="round" stroke-width="1.0" stroke="#595959"/><path fill-rule="evenodd" d="m1134.0118 742.87286l4.5339355 -1.6633301l-4.5423584 -1.6401367z" stroke-linecap="butt" stroke-width="1.0" stroke="#595959" fill="#595959"/><path fill-rule="evenodd" d="m1166.155 534.479l154.7716 0l0 45.259827l-154.7716 0z" fill-opacity="0.0" fill="#000000"/><path fill-rule="nonzero" d="m1235.3612 563.959l0 -2.140625l2.140625 0l0 2.140625l-2.140625 0zm7.125 0l0 -2.140625l2.125 0l0 2.140625l-2.125 0zm7.09375 0l0 -2.140625l2.140625 0l0 2.140625l-2.140625 0z" fill="#000000"/><path fill-rule="evenodd" d="m1130.2758 340.80316l154.7716 0l0 45.259827l-154.7716 0z" fill-opacity="0.0" fill="#000000"/><path fill-rule="nonzero" d="m1186.4042 364.92377l2.03125 0.515625q-0.640625 2.484375 -2.296875 3.796875q-1.640625 1.3125 -4.03125 1.3125q-2.46875 0 -4.015625 -1.0q-1.546875 -1.015625 -2.359375 -2.921875q-0.796875 -1.90625 -0.796875 -4.09375q0 -2.390625 0.90625 -4.15625q0.921875 -1.78125 2.59375 -2.703125q1.6875 -0.921875 3.703125 -0.921875q2.296875 0 3.859375 1.171875q1.5625 1.171875 2.171875 3.28125l-1.984375 0.46875q-0.53125 -1.671875 -1.546875 -2.421875q-1.0 -0.765625 -2.53125 -0.765625q-1.765625 0 -2.953125 0.84375q-1.171875 0.84375 -1.65625 2.265625q-0.484375 1.421875 -0.484375 2.921875q0 1.953125 0.5625 3.40625q0.578125 1.453125 1.765625 2.171875q1.203125 0.71875 2.609375 0.71875q1.6875 0 2.859375 -0.96875q1.1875 -0.984375 1.59375 -2.921875zm3.5743408 -0.171875q0 -3.078125 1.71875 -4.546875q1.421875 -1.234375 3.46875 -1.234375q2.28125 0 3.71875 1.5q1.453125 1.484375 1.453125 4.125q0 2.140625 -0.640625 3.359375q-0.625 1.21875 -1.859375 1.90625q-1.21875 0.671875 -2.671875 0.671875q-2.3125 0 -3.75 -1.484375q-1.4375 -1.5 -1.4375 -4.296875zm1.9375 0q0 2.125 0.921875 3.1875q0.921875 1.046875 2.328125 1.046875q1.40625 0 2.328125 -1.0625q0.921875 -1.0625 0.921875 -3.234375q0 -2.046875 -0.9375 -3.109375q-0.921875 -1.0625 -2.3125 -1.0625q-1.40625 0 -2.328125 1.0625q-0.921875 1.046875 -0.921875 3.171875zm10.627319 5.53125l0 -11.0625l1.6875 0l0 1.578125q1.21875 -1.828125 3.515625 -1.828125q1.0 0 1.84375 0.359375q0.84375 0.359375 1.25 0.953125q0.421875 0.578125 0.59375 1.375q0.09375 0.515625 0.09375 1.828125l0 6.796875l-1.875 0l0 -6.734375q0 -1.140625 -0.21875 -1.703125q-0.21875 -0.578125 -0.78125 -0.90625q-0.546875 -0.34375 -1.296875 -0.34375q-1.203125 0 -2.078125 0.765625q-0.859375 0.75 -0.859375 2.875l0 6.046875l-1.875 0zm19.080444 -4.046875l1.84375 0.234375q-0.296875 1.90625 -1.546875 2.984375q-1.25 1.078125 -3.0625 1.078125q-2.265625 0 -3.65625 -1.484375q-1.375 -1.484375 -1.375 -4.25q0 -1.796875 0.59375 -3.140625q0.59375 -1.34375 1.8125 -2.015625q1.21875 -0.671875 2.640625 -0.671875q1.796875 0 2.9375 0.921875q1.15625 0.90625 1.484375 2.578125l-1.828125 0.28125q-0.265625 -1.109375 -0.921875 -1.671875q-0.65625 -0.5625 -1.59375 -0.5625q-1.421875 0 -2.3125 1.015625q-0.875 1.015625 -0.875 3.203125q0 2.234375 0.84375 3.25q0.859375 1.0 2.234375 1.0q1.109375 0 1.84375 -0.671875q0.734375 -0.671875 0.9375 -2.078125zm10.6640625 2.6875q-1.046875 0.875 -2.015625 1.25q-0.953125 0.359375 -2.0625 0.359375q-1.8125 0 -2.796875 -0.890625q-0.984375 -0.890625 -0.984375 -2.28125q0 -0.8125 0.375 -1.484375q0.375 -0.671875 0.96875 -1.078125q0.59375 -0.40625 1.34375 -0.609375q0.5625 -0.140625 1.671875 -0.28125q2.265625 -0.265625 3.34375 -0.640625q0.015625 -0.390625 0.015625 -0.5q0 -1.140625 -0.53125 -1.609375q-0.71875 -0.640625 -2.140625 -0.640625q-1.328125 0 -1.953125 0.46875q-0.625 0.46875 -0.9375 1.640625l-1.828125 -0.25q0.25 -1.171875 0.8125 -1.890625q0.578125 -0.734375 1.65625 -1.125q1.09375 -0.390625 2.515625 -0.390625q1.421875 0 2.296875 0.34375q0.890625 0.328125 1.3125 0.828125q0.421875 0.5 0.578125 1.28125q0.09375 0.46875 0.09375 1.71875l0 2.5q0 2.625 0.125 3.3125q0.125 0.6875 0.46875 1.328125l-1.953125 0q-0.296875 -0.578125 -0.375 -1.359375zm-0.15625 -4.1875q-1.015625 0.40625 -3.0625 0.703125q-1.15625 0.171875 -1.640625 0.375q-0.46875 0.203125 -0.734375 0.609375q-0.265625 0.40625 -0.265625 0.890625q0 0.75 0.5625 1.25q0.578125 0.5 1.671875 0.5q1.078125 0 1.921875 -0.46875q0.84375 -0.484375 1.25 -1.296875q0.296875 -0.640625 0.296875 -1.875l0 -0.6875zm8.892944 3.875l0.265625 1.65625q-0.78125 0.15625 -1.40625 0.15625q-1.03125 0 -1.59375 -0.3125q-0.5625 -0.328125 -0.796875 -0.84375q-0.21875 -0.53125 -0.21875 -2.21875l0 -6.375l-1.375 0l0 -1.453125l1.375 0l0 -2.734375l1.859375 -1.125l0 3.859375l1.890625 0l0 1.453125l-1.890625 0l0 6.46875q0 0.8125 0.09375 1.046875q0.109375 0.21875 0.328125 0.359375q0.234375 0.125 0.640625 0.125q0.3125 0 0.828125 -0.0625z" fill="#000000"/><path fill-rule="evenodd" d="m771.2231 352.22833l154.77167 0l0 45.259857l-154.77167 0z" fill-opacity="0.0" fill="#000000"/><path fill-rule="nonzero" d="m795.4661 381.70834l0 -15.265625l2.03125 0l0 15.265625l-2.03125 0zm5.347473 0l0 -11.0625l1.6875 0l0 1.578125q1.21875 -1.828125 3.515625 -1.828125q1.0 0 1.84375 0.359375q0.84375 0.359375 1.25 0.953125q0.421875 0.578125 0.59375 1.375q0.09375 0.515625 0.09375 1.828125l0 6.796875l-1.875 0l0 -6.734375q0 -1.140625 -0.21875 -1.703125q-0.21875 -0.578125 -0.78125 -0.90625q-0.546875 -0.34375 -1.296875 -0.34375q-1.203125 0 -2.078125 0.765625q-0.859375 0.75 -0.859375 2.875l0 6.046875l-1.875 0zm15.955444 -1.671875l0.265625 1.65625q-0.78125 0.15625 -1.40625 0.15625q-1.03125 0 -1.59375 -0.3125q-0.5625 -0.328125 -0.796875 -0.84375q-0.21875 -0.53125 -0.21875 -2.21875l0 -6.375l-1.375 0l0 -1.453125l1.375 0l0 -2.734375l1.859375 -1.125l0 3.859375l1.890625 0l0 1.453125l-1.890625 0l0 6.46875q0 0.8125 0.09375 1.046875q0.109375 0.21875 0.328125 0.359375q0.234375 0.125 0.640625 0.125q0.3125 0 0.828125 -0.0625zm9.410034 -1.890625l1.921875 0.234375q-0.453125 1.703125 -1.6875 2.640625q-1.234375 0.9375 -3.171875 0.9375q-2.421875 0 -3.84375 -1.484375q-1.421875 -1.5 -1.421875 -4.203125q0 -2.796875 1.4375 -4.328125q1.4375 -1.546875 3.734375 -1.546875q2.21875 0 3.609375 1.515625q1.40625 1.5 1.40625 4.25q0 0.15625 0 0.5l-8.25 0q0.109375 1.8125 1.03125 2.78125q0.921875 0.96875 2.3125 0.96875q1.03125 0 1.75 -0.53125q0.734375 -0.546875 1.171875 -1.734375zm-6.15625 -3.03125l6.171875 0q-0.125 -1.390625 -0.703125 -2.09375q-0.90625 -1.078125 -2.328125 -1.078125q-1.296875 0 -2.171875 0.859375q-0.875 0.859375 -0.96875 2.3125zm10.424194 6.59375l0 -11.0625l1.6875 0l0 1.671875q0.640625 -1.171875 1.1875 -1.546875q0.546875 -0.375 1.203125 -0.375q0.953125 0 1.921875 0.609375l-0.640625 1.734375q-0.6875 -0.40625 -1.375 -0.40625q-0.609375 0 -1.109375 0.375q-0.484375 0.359375 -0.6875 1.015625q-0.3125 1.0 -0.3125 2.1875l0 5.796875l-1.875 0zm14.336792 -1.359375q-1.046875 0.875 -2.015625 1.25q-0.953125 0.359375 -2.0625 0.359375q-1.8125 0 -2.796875 -0.890625q-0.984375 -0.890625 -0.984375 -2.28125q0 -0.8125 0.375 -1.484375q0.375 -0.671875 0.96875 -1.078125q0.59375 -0.40625 1.34375 -0.609375q0.5625 -0.140625 1.671875 -0.28125q2.265625 -0.265625 3.34375 -0.640625q0.015625 -0.390625 0.015625 -0.5q0 -1.140625 -0.53125 -1.609375q-0.71875 -0.640625 -2.140625 -0.640625q-1.328125 0 -1.953125 0.46875q-0.625 0.46875 -0.9375 1.640625l-1.828125 -0.25q0.25 -1.171875 0.8125 -1.890625q0.578125 -0.734375 1.65625 -1.125q1.09375 -0.390625 2.515625 -0.390625q1.421875 0 2.296875 0.34375q0.890625 0.328125 1.3125 0.828125q0.421875 0.5 0.578125 1.28125q0.09375 0.46875 0.09375 1.71875l0 2.5q0 2.625 0.125 3.3125q0.125 0.6875 0.46875 1.328125l-1.953125 0q-0.296875 -0.578125 -0.375 -1.359375zm-0.15625 -4.1875q-1.015625 0.40625 -3.0625 0.703125q-1.15625 0.171875 -1.640625 0.375q-0.46875 0.203125 -0.734375 0.609375q-0.265625 0.40625 -0.265625 0.890625q0 0.75 0.5625 1.25q0.578125 0.5 1.671875 0.5q1.078125 0 1.921875 -0.46875q0.84375 -0.484375 1.25 -1.296875q0.296875 -0.640625 0.296875 -1.875l0 -0.6875zm12.017944 1.5l1.84375 0.234375q-0.296875 1.90625 -1.546875 2.984375q-1.25 1.078125 -3.0625 1.078125q-2.265625 0 -3.65625 -1.484375q-1.375 -1.484375 -1.375 -4.25q0 -1.796875 0.59375 -3.140625q0.59375 -1.34375 1.8125 -2.015625q1.21875 -0.671875 2.640625 -0.671875q1.796875 0 2.9375 0.921875q1.15625 0.90625 1.484375 2.578125l-1.828125 0.28125q-0.265625 -1.109375 -0.921875 -1.671875q-0.65625 -0.5625 -1.59375 -0.5625q-1.421875 0 -2.3125 1.015625q-0.875 1.015625 -0.875 3.203125q0 2.234375 0.84375 3.25q0.859375 1.0 2.234375 1.0q1.109375 0 1.84375 -0.671875q0.734375 -0.671875 0.9375 -2.078125zm7.5390625 2.375l0.265625 1.65625q-0.78125 0.15625 -1.40625 0.15625q-1.03125 0 -1.59375 -0.3125q-0.5625 -0.328125 -0.796875 -0.84375q-0.21875 -0.53125 -0.21875 -2.21875l0 -6.375l-1.375 0l0 -1.453125l1.375 0l0 -2.734375l1.859375 -1.125l0 3.859375l1.890625 0l0 1.453125l-1.890625 0l0 6.46875q0 0.8125 0.09375 1.046875q0.109375 0.21875 0.328125 0.359375q0.234375 0.125 0.640625 0.125q0.3125 0 0.828125 -0.0625zm1.8475342 -11.4375l0 -2.15625l1.875 0l0 2.15625l-1.875 0zm0 13.109375l0 -11.0625l1.875 0l0 11.0625l-1.875 0zm4.0197144 -5.53125q0 -3.078125 1.71875 -4.546875q1.421875 -1.234375 3.46875 -1.234375q2.28125 0 3.71875 1.5q1.453125 1.484375 1.453125 4.125q0 2.140625 -0.640625 3.359375q-0.625 1.21875 -1.859375 1.90625q-1.21875 0.671875 -2.671875 0.671875q-2.3125 0 -3.75 -1.484375q-1.4375 -1.5 -1.4375 -4.296875zm1.9375 0q0 2.125 0.921875 3.1875q0.921875 1.046875 2.328125 1.046875q1.40625 0 2.328125 -1.0625q0.921875 -1.0625 0.921875 -3.234375q0 -2.046875 -0.9375 -3.109375q-0.921875 -1.0625 -2.3125 -1.0625q-1.40625 0 -2.328125 1.0625q-0.921875 1.046875 -0.921875 3.171875zm10.627319 5.53125l0 -11.0625l1.6875 0l0 1.578125q1.21875 -1.828125 3.515625 -1.828125q1.0 0 1.84375 0.359375q0.84375 0.359375 1.25 0.953125q0.421875 0.578125 0.59375 1.375q0.09375 0.515625 0.09375 1.828125l0 6.796875l-1.875 0l0 -6.734375q0 -1.140625 -0.21875 -1.703125q-0.21875 -0.578125 -0.78125 -0.90625q-0.546875 -0.34375 -1.296875 -0.34375q-1.203125 0 -2.078125 0.765625q-0.859375 0.75 -0.859375 2.875l0 6.046875l-1.875 0zm11.111694 -3.296875l1.859375 -0.296875q0.15625 1.109375 0.859375 1.703125q0.71875 0.59375 2.0 0.59375q1.296875 0 1.921875 -0.515625q0.625 -0.53125 0.625 -1.234375q0 -0.640625 -0.5625 -1.0q-0.375 -0.25 -1.90625 -0.640625q-2.0625 -0.515625 -2.859375 -0.890625q-0.796875 -0.390625 -1.21875 -1.0625q-0.40625 -0.671875 -0.40625 -1.484375q0 -0.734375 0.328125 -1.359375q0.34375 -0.640625 0.9375 -1.0625q0.4375 -0.3125 1.1875 -0.53125q0.75 -0.234375 1.625 -0.234375q1.296875 0 2.28125 0.375q0.984375 0.375 1.453125 1.015625q0.46875 0.640625 0.640625 1.71875l-1.828125 0.25q-0.125 -0.859375 -0.734375 -1.328125q-0.59375 -0.484375 -1.6875 -0.484375q-1.28125 0 -1.84375 0.421875q-0.546875 0.421875 -0.546875 1.0q0 0.359375 0.234375 0.65625q0.21875 0.296875 0.71875 0.5q0.28125 0.109375 1.65625 0.484375q1.984375 0.53125 2.765625 0.875q0.796875 0.328125 1.234375 0.984375q0.453125 0.640625 0.453125 1.59375q0 0.9375 -0.546875 1.765625q-0.546875 0.828125 -1.578125 1.28125q-1.03125 0.453125 -2.328125 0.453125q-2.15625 0 -3.296875 -0.890625q-1.125 -0.90625 -1.4375 -2.65625z" fill="#000000"/><path fill-rule="evenodd" d="m756.8968 117.311264l234.64569 0l0 48.472443l-234.64569 0z" fill-opacity="0.0" fill="#000000"/><path fill-rule="nonzero" d="m799.3739 149.35126l0 -17.1875l6.46875 0q1.71875 0 2.625 0.171875q1.265625 0.203125 2.109375 0.796875q0.859375 0.59375 1.375 1.671875q0.53125 1.0625 0.53125 2.328125q0 2.203125 -1.40625 3.71875q-1.390625 1.515625 -5.03125 1.515625l-4.40625 0l0 6.984375l-2.265625 0zm2.265625 -9.015625l4.4375 0q2.203125 0 3.125 -0.8125q0.9375 -0.828125 0.9375 -2.3125q0 -1.078125 -0.546875 -1.84375q-0.546875 -0.765625 -1.4375 -1.015625q-0.578125 -0.15625 -2.125 -0.15625l-4.390625 0l0 6.140625zm13.4453125 9.015625l0 -12.453125l1.890625 0l0 1.890625q0.734375 -1.328125 1.34375 -1.75q0.625 -0.421875 1.359375 -0.421875q1.0625 0 2.171875 0.6875l-0.734375 1.953125q-0.765625 -0.453125 -1.546875 -0.453125q-0.6875 0 -1.25 0.421875q-0.546875 0.40625 -0.78125 1.140625q-0.34375 1.125 -0.34375 2.46875l0 6.515625l-2.109375 0zm16.539062 -4.015625l2.171875 0.28125q-0.515625 1.90625 -1.90625 2.96875q-1.390625 1.046875 -3.5625 1.046875q-2.734375 0 -4.34375 -1.671875q-1.59375 -1.6875 -1.59375 -4.734375q0 -3.140625 1.609375 -4.875q1.625 -1.734375 4.203125 -1.734375q2.5 0 4.078125 1.703125q1.59375 1.703125 1.59375 4.78125q0 0.1875 -0.015625 0.5625l-9.28125 0q0.109375 2.046875 1.15625 3.140625q1.046875 1.09375 2.609375 1.09375q1.15625 0 1.96875 -0.609375q0.828125 -0.609375 1.3125 -1.953125zm-6.9375 -3.40625l6.953125 0q-0.140625 -1.5625 -0.796875 -2.359375q-1.0 -1.21875 -2.609375 -1.21875q-1.453125 0 -2.453125 0.984375q-0.984375 0.96875 -1.09375 2.59375zm11.753906 12.1875l0 -17.21875l1.921875 0l0 1.625q0.6875 -0.953125 1.53125 -1.421875q0.859375 -0.484375 2.078125 -0.484375q1.59375 0 2.8125 0.828125q1.21875 0.8125 1.84375 2.3125q0.625 1.5 0.625 3.28125q0 1.90625 -0.6875 3.4375q-0.6875 1.53125 -2.0 2.34375q-1.296875 0.8125 -2.734375 0.8125q-1.0625 0 -1.90625 -0.4375q-0.828125 -0.453125 -1.375 -1.140625l0 6.0625l-2.109375 0zm1.921875 -10.921875q0 2.40625 0.96875 3.5625q0.96875 1.140625 2.359375 1.140625q1.40625 0 2.40625 -1.1875q1.0 -1.1875 1.0 -3.6875q0 -2.375 -0.984375 -3.5625q-0.96875 -1.1875 -2.328125 -1.1875q-1.359375 0 -2.390625 1.265625q-1.03125 1.25 -1.03125 3.65625zm11.410156 6.15625l0 -12.453125l1.890625 0l0 1.890625q0.734375 -1.328125 1.34375 -1.75q0.625 -0.421875 1.359375 -0.421875q1.0625 0 2.171875 0.6875l-0.734375 1.953125q-0.765625 -0.453125 -1.546875 -0.453125q-0.6875 0 -1.25 0.421875q-0.546875 0.40625 -0.78125 1.140625q-0.34375 1.125 -0.34375 2.46875l0 6.515625l-2.109375 0zm7.2265625 -6.21875q0 -3.46875 1.921875 -5.125q1.609375 -1.390625 3.921875 -1.390625q2.5625 0 4.1875 1.6875q1.625 1.6875 1.625 4.640625q0 2.40625 -0.71875 3.78125q-0.71875 1.375 -2.09375 2.140625q-1.375 0.765625 -3.0 0.765625q-2.625 0 -4.234375 -1.671875q-1.609375 -1.6875 -1.609375 -4.828125zm2.171875 0q0 2.390625 1.03125 3.578125q1.046875 1.1875 2.640625 1.1875q1.5625 0 2.609375 -1.1875q1.046875 -1.203125 1.046875 -3.65625q0 -2.3125 -1.0625 -3.5q-1.046875 -1.1875 -2.59375 -1.1875q-1.59375 0 -2.640625 1.1875q-1.03125 1.1875 -1.03125 3.578125zm20.082031 1.65625l2.078125 0.265625q-0.34375 2.15625 -1.75 3.375q-1.390625 1.203125 -3.4375 1.203125q-2.546875 0 -4.109375 -1.671875q-1.546875 -1.671875 -1.546875 -4.78125q0 -2.015625 0.671875 -3.53125q0.671875 -1.515625 2.03125 -2.265625q1.359375 -0.765625 2.96875 -0.765625q2.03125 0 3.3125 1.03125q1.296875 1.03125 1.65625 2.90625l-2.046875 0.328125q-0.296875 -1.265625 -1.046875 -1.890625q-0.734375 -0.640625 -1.796875 -0.640625q-1.59375 0 -2.59375 1.15625q-0.984375 1.140625 -0.984375 3.609375q0 2.5 0.953125 3.640625q0.96875 1.140625 2.515625 1.140625q1.234375 0 2.0625 -0.765625q0.84375 -0.765625 1.0625 -2.34375zm12.40625 0.546875l2.171875 0.28125q-0.515625 1.90625 -1.90625 2.96875q-1.390625 1.046875 -3.5625 1.046875q-2.734375 0 -4.34375 -1.671875q-1.59375 -1.6875 -1.59375 -4.734375q0 -3.140625 1.609375 -4.875q1.625 -1.734375 4.203125 -1.734375q2.5 0 4.078125 1.703125q1.59375 1.703125 1.59375 4.78125q0 0.1875 -0.015625 0.5625l-9.28125 0q0.109375 2.046875 1.15625 3.140625q1.046875 1.09375 2.609375 1.09375q1.15625 0 1.96875 -0.609375q0.828125 -0.609375 1.3125 -1.953125zm-6.9375 -3.40625l6.953125 0q-0.140625 -1.5625 -0.796875 -2.359375q-1.0 -1.21875 -2.609375 -1.21875q-1.453125 0 -2.453125 0.984375q-0.984375 0.96875 -1.09375 2.59375zm10.910156 3.703125l2.09375 -0.328125q0.171875 1.25 0.96875 1.921875q0.8125 0.671875 2.25 0.671875q1.453125 0 2.15625 -0.59375q0.703125 -0.59375 0.703125 -1.390625q0 -0.71875 -0.625 -1.125q-0.421875 -0.28125 -2.15625 -0.71875q-2.3125 -0.578125 -3.21875 -1.0q-0.890625 -0.4375 -1.359375 -1.1875q-0.453125 -0.765625 -0.453125 -1.671875q0 -0.828125 0.375 -1.53125q0.390625 -0.71875 1.046875 -1.1875q0.484375 -0.359375 1.328125 -0.609375q0.859375 -0.265625 1.828125 -0.265625q1.46875 0 2.578125 0.421875q1.109375 0.421875 1.625 1.15625q0.53125 0.71875 0.734375 1.921875l-2.0625 0.28125q-0.140625 -0.96875 -0.8125 -1.5q-0.671875 -0.546875 -1.90625 -0.546875q-1.453125 0 -2.078125 0.484375q-0.625 0.484375 -0.625 1.125q0 0.40625 0.265625 0.734375q0.25 0.34375 0.8125 0.5625q0.3125 0.125 1.859375 0.546875q2.234375 0.59375 3.109375 0.984375q0.890625 0.375 1.390625 1.109375q0.515625 0.71875 0.515625 1.796875q0 1.046875 -0.625 1.984375q-0.609375 0.9375 -1.765625 1.453125q-1.15625 0.5 -2.625 0.5q-2.421875 0 -3.703125 -1.0q-1.265625 -1.015625 -1.625 -3.0zm12.0 0l2.09375 -0.328125q0.171875 1.25 0.96875 1.921875q0.8125 0.671875 2.25 0.671875q1.453125 0 2.15625 -0.59375q0.703125 -0.59375 0.703125 -1.390625q0 -0.71875 -0.625 -1.125q-0.421875 -0.28125 -2.15625 -0.71875q-2.3125 -0.578125 -3.21875 -1.0q-0.890625 -0.4375 -1.359375 -1.1875q-0.453125 -0.765625 -0.453125 -1.671875q0 -0.828125 0.375 -1.53125q0.390625 -0.71875 1.046875 -1.1875q0.484375 -0.359375 1.328125 -0.609375q0.859375 -0.265625 1.828125 -0.265625q1.46875 0 2.578125 0.421875q1.109375 0.421875 1.625 1.15625q0.53125 0.71875 0.734375 1.921875l-2.0625 0.28125q-0.140625 -0.96875 -0.8125 -1.5q-0.671875 -0.546875 -1.90625 -0.546875q-1.453125 0 -2.078125 0.484375q-0.625 0.484375 -0.625 1.125q0 0.40625 0.265625 0.734375q0.25 0.34375 0.8125 0.5625q0.3125 0.125 1.859375 0.546875q2.234375 0.59375 3.109375 0.984375q0.890625 0.375 1.390625 1.109375q0.515625 0.71875 0.515625 1.796875q0 1.046875 -0.625 1.984375q-0.609375 0.9375 -1.765625 1.453125q-1.15625 0.5 -2.625 0.5q-2.421875 0 -3.703125 -1.0q-1.265625 -1.015625 -1.625 -3.0zm12.859375 -11.03125l0 -2.4375l2.109375 0l0 2.4375l-2.109375 0zm0 14.75l0 -12.453125l2.109375 0l0 12.453125l-2.109375 0zm5.3164062 0l0 -12.453125l1.90625 0l0 1.78125q1.375 -2.0625 3.953125 -2.0625q1.125 0 2.0625 0.40625q0.953125 0.40625 1.421875 1.0625q0.46875 0.65625 0.65625 1.5625q0.125 0.578125 0.125 2.046875l0 7.65625l-2.109375 0l0 -7.578125q0 -1.28125 -0.25 -1.921875q-0.25 -0.640625 -0.875 -1.015625q-0.625 -0.390625 -1.46875 -0.390625q-1.34375 0 -2.328125 0.859375q-0.984375 0.859375 -0.984375 3.25l0 6.796875l-2.109375 0zm12.972656 1.03125l2.046875 0.3125q0.125 0.9375 0.71875 1.375q0.78125 0.59375 2.140625 0.59375q1.46875 0 2.265625 -0.59375q0.796875 -0.578125 1.078125 -1.640625q0.15625 -0.640625 0.140625 -2.703125q-1.375 1.625 -3.4375 1.625q-2.5625 0 -3.96875 -1.84375q-1.40625 -1.859375 -1.40625 -4.453125q0 -1.78125 0.640625 -3.28125q0.640625 -1.515625 1.859375 -2.328125q1.234375 -0.828125 2.890625 -0.828125q2.203125 0 3.625 1.78125l0 -1.5l1.953125 0l0 10.765625q0 2.90625 -0.59375 4.109375q-0.59375 1.21875 -1.875 1.921875q-1.28125 0.703125 -3.15625 0.703125q-2.234375 0 -3.609375 -1.0q-1.359375 -1.0 -1.3125 -3.015625zm1.734375 -7.484375q0 2.453125 0.96875 3.578125q0.984375 1.125 2.453125 1.125q1.453125 0 2.4375 -1.109375q0.984375 -1.125 0.984375 -3.515625q0 -2.28125 -1.015625 -3.4375q-1.015625 -1.171875 -2.453125 -1.171875q-1.40625 0 -2.390625 1.140625q-0.984375 1.140625 -0.984375 3.390625z" fill="#000000"/></g></svg>